<?xml version="1.0" encoding="UTF-8" standalone="no"?>
<!-- Created with Digital by H.Neemann -->
<!-- created: Wed Feb 23 08:23:43 EST 2022 -->

<svg
   xmlns:svg="http://www.w3.org/2000/svg"
   xmlns="http://www.w3.org/2000/svg"
   width="106.8mm"
   height="62.25mm"
   viewBox="-889 -197 712 415">
<g stroke-linecap="square">
<path d="M -868,-165 L -843,-165 L -818,-165" stroke="#000000" stroke-width="4.0" fill="none"/>
<path d="M -868,-130 L -843,-130 L -843,-155 L -818,-155" stroke="#000000" stroke-width="4.0" fill="none"/>
<path d="M -868,-95 L -843,-95 L -818,-95" stroke="#000000" stroke-width="4.0" fill="none"/>
<path d="M -868,-160 L -818,-160" stroke-dasharray="4.0,4.0" stroke="#000000" stroke-width="1.0" fill="none"/>
<path d="M -868,-125 L -818,-125" stroke-dasharray="4.0,4.0" stroke="#000000" stroke-width="1.0" fill="none"/>
<path d="M -818,-195 L -868,-195 L -868,-90 L -818,-90 Z" stroke-dasharray="4.0,4.0" stroke="#000000" stroke-width="1.0" fill="none"/>
<path d="M -843,-195 L -843,-90" stroke-dasharray="4.0,4.0" stroke="#000000" stroke-width="1.0" fill="none"/>
<path d="M -600,80 L -420,80" stroke="#0000b2" stroke-width="4.0" fill="none"/>
<path d="M -680,140 L -680,160 L -660,160" stroke="#0000b2" stroke-width="4.0" fill="none"/>
<path d="M -500,0 L -460,0 L -460,140" stroke="#0000b2" stroke-width="4.0" fill="none"/>
<path d="M -680,160 L -680,180 L -660,180" stroke="#0000b2" stroke-width="4.0" fill="none"/>
<path d="M -600,100 L -360,100" stroke="#0000b2" stroke-width="4.0" fill="none"/>
<path d="M -800,100 L -660,100" stroke="#0000b2" stroke-width="4.0" fill="none"/>
<path d="M -600,120 L -480,120 L -300,120" stroke="#0000b2" stroke-width="4.0" fill="none"/>
<path d="M -740,120 L -680,120 L -660,120" stroke="#0000b2" stroke-width="4.0" fill="none"/>
<path d="M -500,40 L -480,40 L -480,120" stroke="#0000b2" stroke-width="4.0" fill="none"/>
<path d="M -600,140 L -460,140 L -240,140" stroke="#0000b2" stroke-width="4.0" fill="none"/>
<path d="M -680,120 L -680,140 L -660,140" stroke="#0000b2" stroke-width="4.0" fill="none"/>
<path d="M -680,60 L -660,60" stroke="#0000b2" stroke-width="4.0" fill="none"/>
<path d="M -740,20 L -740,60 L -720,60" stroke="#0000b2" stroke-width="4.0" fill="none"/>
<path d="M -660,80 L -780,80 L -780,20 L -740,20 L -580,20" stroke="#0000b2" stroke-width="4.0" fill="none"/>
<g>
<circle cx="-680.0" cy="160.0" r="4.0" stroke="#0000b2" stroke-width="4.0" fill="#0000b2" />
<circle cx="-740.0" cy="20.0" r="4.0" stroke="#0000b2" stroke-width="4.0" fill="#0000b2" />
<circle cx="-480.0" cy="120.0" r="4.0" stroke="#0000b2" stroke-width="4.0" fill="#0000b2" />
<circle cx="-680.0" cy="120.0" r="4.0" stroke="#0000b2" stroke-width="4.0" fill="#0000b2" />
<circle cx="-460.0" cy="140.0" r="4.0" stroke="#0000b2" stroke-width="4.0" fill="#0000b2" />
<circle cx="-680.0" cy="140.0" r="4.0" stroke="#0000b2" stroke-width="4.0" fill="#0000b2" />
</g>
<g>
<text text-anchor="end" x="-870.0" y="-169.0" fill="#000000" style="font-size:24px">A</text>
<text text-anchor="end" x="-870.0" y="-134.0" fill="#000000" style="font-size:24px">B</text>
<text text-anchor="end" x="-870.0" y="-99.0" fill="#000000" style="font-size:24px">C</text>
</g>
<g>
<text text-anchor="end" x="-743.0" y="129.0" fill="#000000" style="font-size:24px">0</text>
<circle cx="-740.0" cy="120.0" r="2.0" stroke="#b20000" stroke-width="4.0" fill="#b20000" />
</g>
<g>
<path d="M -550,-10 L -501,-10 L -501,50 L -550,50 C -560,50 -580,40 -579,20 C -579,0 -560,-10 -550,-10 Z" stroke="#000000" stroke-width="4.0" fill="none"/>
<circle cx="-500.0" cy="40.0" r="2.0" stroke="#0000b2" stroke-width="4.0" fill="#0000b2" />
<circle cx="-500.0" cy="0.0" r="2.0" stroke="#0000b2" stroke-width="4.0" fill="#0000b2" />
<circle cx="-580.0" cy="20.0" r="2.0" stroke="#b20000" stroke-width="4.0" fill="#b20000" />
</g>
<g>
<circle cx="-409.0" cy="80.0" r="4.0" stroke="#000000" stroke-width="2.0" fill="none" />
<circle cx="-409.0" cy="80.0" r="10.0" stroke="#000000" stroke-width="4.0" fill="none" />
<text text-anchor="start" x="-390.0" y="89.0" fill="#000000" style="font-size:24px"><tspan style="font-style:italic;">A<tspan style="font-size:80%;baseline-shift:sub;">0</tspan></tspan></text>
<circle cx="-420.0" cy="80.0" r="2.0" stroke="#0000b2" stroke-width="4.0" fill="#0000b2" />
</g>
<g>
<circle cx="-349.0" cy="100.0" r="4.0" stroke="#000000" stroke-width="2.0" fill="none" />
<circle cx="-349.0" cy="100.0" r="10.0" stroke="#000000" stroke-width="4.0" fill="none" />
<text text-anchor="start" x="-330.0" y="109.0" fill="#000000" style="font-size:24px"><tspan style="font-style:italic;">A<tspan style="font-size:80%;baseline-shift:sub;">1</tspan></tspan></text>
<circle cx="-360.0" cy="100.0" r="2.0" stroke="#0000b2" stroke-width="4.0" fill="#0000b2" />
</g>
<g>
<circle cx="-289.0" cy="120.0" r="4.0" stroke="#000000" stroke-width="2.0" fill="none" />
<circle cx="-289.0" cy="120.0" r="10.0" stroke="#000000" stroke-width="4.0" fill="none" />
<text text-anchor="start" x="-270.0" y="129.0" fill="#000000" style="font-size:24px"><tspan style="font-style:italic;">A<tspan style="font-size:80%;baseline-shift:sub;">2</tspan></tspan></text>
<circle cx="-300.0" cy="120.0" r="2.0" stroke="#0000b2" stroke-width="4.0" fill="#0000b2" />
</g>
<g>
<circle cx="-229.0" cy="140.0" r="4.0" stroke="#000000" stroke-width="2.0" fill="none" />
<circle cx="-229.0" cy="140.0" r="10.0" stroke="#000000" stroke-width="4.0" fill="none" />
<text text-anchor="start" x="-210.0" y="149.0" fill="#000000" style="font-size:24px"><tspan style="font-style:italic;">A<tspan style="font-size:80%;baseline-shift:sub;">3</tspan></tspan></text>
<circle cx="-240.0" cy="140.0" r="2.0" stroke="#0000b2" stroke-width="4.0" fill="#0000b2" />
</g>
<g>
<path d="M -831,85 L -801,85 L -801,115 L -831,115 Z" stroke="#000000" stroke-width="4.0" fill="none"/>
<path d="M -825,105 L -820,105 L -820,95 L -815,95 L -815,105 L -810,105 L -810,95 L -805,95" stroke="#000000" stroke-width="2.0" fill="none"/>
<circle cx="-800.0" cy="100.0" r="2.0" stroke="#b20000" stroke-width="4.0" fill="#b20000" />
</g>
<g>
<path d="M -719,48 L -701,60 L -719,72 Z" stroke="#000000" stroke-width="4.0" fill="none"/>
<circle cx="-690.0" cy="60.0" r="9.0" stroke="#000000" stroke-width="4.0" fill="none" />
<circle cx="-720.0" cy="60.0" r="2.0" stroke="#0000b2" stroke-width="4.0" fill="#0000b2" />
<circle cx="-680.0" cy="60.0" r="2.0" stroke="#b20000" stroke-width="4.0" fill="#b20000" />
</g>
<g>
<path d="M -659,46 L -601,46 L -601,194 L -659,194 Z" stroke="#ffffb4" stroke-width="0.0" fill="#ffffb4" fill-opacity="0.7843137254901961"/>
<path d="M -659,46 L -601,46 L -601,194 L -659,194 Z" stroke="#000000" stroke-width="4.0" fill="none"/>
<text text-anchor="start" x="-656.0" y="66.75" fill="#808080" style="font-size:18px">Cpt</text>
<text text-anchor="start" x="-656.0" y="86.75" fill="#808080" style="font-size:18px">Ch</text>
<path d="M -659,107 L -652,100 L -659,93" stroke="#000000" stroke-width="2.0" fill="none"/>
<text text-anchor="start" x="-649.0" y="106.75" fill="#808080" style="font-size:18px">C</text>
<text text-anchor="start" x="-656.0" y="126.75" fill="#808080" style="font-size:18px">I<tspan style="font-size:80%;baseline-shift:sub;">0</tspan></text>
<text text-anchor="start" x="-656.0" y="146.75" fill="#808080" style="font-size:18px">I<tspan style="font-size:80%;baseline-shift:sub;">1</tspan></text>
<text text-anchor="start" x="-656.0" y="166.75" fill="#808080" style="font-size:18px">I<tspan style="font-size:80%;baseline-shift:sub;">2</tspan></text>
<text text-anchor="start" x="-656.0" y="186.75" fill="#808080" style="font-size:18px">I<tspan style="font-size:80%;baseline-shift:sub;">3</tspan></text>
<text text-anchor="end" x="-604.0" y="66.75" fill="#808080" style="font-size:18px">ov</text>
<text text-anchor="end" x="-604.0" y="86.75" fill="#808080" style="font-size:18px">A<tspan style="font-size:80%;baseline-shift:sub;">0</tspan></text>
<text text-anchor="end" x="-604.0" y="106.75" fill="#808080" style="font-size:18px">A<tspan style="font-size:80%;baseline-shift:sub;">1</tspan></text>
<text text-anchor="end" x="-604.0" y="126.75" fill="#808080" style="font-size:18px">A<tspan style="font-size:80%;baseline-shift:sub;">2</tspan></text>
<text text-anchor="end" x="-604.0" y="146.75" fill="#808080" style="font-size:18px">A<tspan style="font-size:80%;baseline-shift:sub;">3</tspan></text>
<text text-anchor="middle" x="-630.0" y="211.5" fill="#808080" style="font-size:18px">comptchargement</text>
<circle cx="-660.0" cy="60.0" r="2.0" stroke="#0000b2" stroke-width="4.0" fill="#0000b2" />
<circle cx="-660.0" cy="80.0" r="2.0" stroke="#0000b2" stroke-width="4.0" fill="#0000b2" />
<circle cx="-660.0" cy="100.0" r="2.0" stroke="#0000b2" stroke-width="4.0" fill="#0000b2" />
<circle cx="-660.0" cy="120.0" r="2.0" stroke="#0000b2" stroke-width="4.0" fill="#0000b2" />
<circle cx="-660.0" cy="140.0" r="2.0" stroke="#0000b2" stroke-width="4.0" fill="#0000b2" />
<circle cx="-660.0" cy="160.0" r="2.0" stroke="#0000b2" stroke-width="4.0" fill="#0000b2" />
<circle cx="-660.0" cy="180.0" r="2.0" stroke="#0000b2" stroke-width="4.0" fill="#0000b2" />
<circle cx="-600.0" cy="60.0" r="2.0" stroke="#b20000" stroke-width="4.0" fill="#b20000" />
<circle cx="-600.0" cy="80.0" r="2.0" stroke="#b20000" stroke-width="4.0" fill="#b20000" />
<circle cx="-600.0" cy="100.0" r="2.0" stroke="#b20000" stroke-width="4.0" fill="#b20000" />
<circle cx="-600.0" cy="120.0" r="2.0" stroke="#b20000" stroke-width="4.0" fill="#b20000" />
<circle cx="-600.0" cy="140.0" r="2.0" stroke="#b20000" stroke-width="4.0" fill="#b20000" />
</g>
</g>
</svg>