<?xml version="1.0" encoding="UTF-8" standalone="no"?>
<!-- Created with Digital by H.Neemann -->
<!-- created: Sat Jan 29 10:21:15 EST 2022 -->

<svg
   xmlns:svg="http://www.w3.org/2000/svg"
   xmlns="http://www.w3.org/2000/svg"
   width="210.6mm"
   height="180.15mm"
   viewBox="-720 -117 1404 1201">
<g stroke-linecap="square">
<path d="M 41,780 L 41,789" stroke="#000000" stroke-width="4.0" fill="none"/>
<path d="M 41,860 L 41,851" stroke="#000000" stroke-width="4.0" fill="none"/>
<path d="M 121,1000 L 121,1009" stroke="#000000" stroke-width="4.0" fill="none"/>
<path d="M 121,1080 L 121,1071" stroke="#000000" stroke-width="4.0" fill="none"/>
<path d="M 632,135 L 657,135 L 682,135" stroke="#000000" stroke-width="4.0" fill="none"/>
<path d="M 632,170 L 657,170 L 657,145 L 682,145" stroke="#000000" stroke-width="4.0" fill="none"/>
<path d="M 632,205 L 657,205 L 682,205" stroke="#000000" stroke-width="4.0" fill="none"/>
<path d="M -580,0 L -560,0" stroke="#0000b2" stroke-width="4.0" fill="none"/>
<path d="M -520,0 L -500,0 L -480,0" stroke="#0000b2" stroke-width="4.0" fill="none"/>
<path d="M -440,0 L -400,0 L -400,60 L -200,60" stroke="#0000b2" stroke-width="4.0" fill="none"/>
<path d="M 240,320 L 260,320 L 260,340 L 340,340" stroke="#0000b2" stroke-width="4.0" fill="none"/>
<path d="M -560,320 L -480,320 L -200,320" stroke="#0000b2" stroke-width="4.0" fill="none"/>
<path d="M 240,640 L 260,640 L 260,620 L 340,620" stroke="#0000b2" stroke-width="4.0" fill="none"/>
<path d="M -100,340 L -100,580 L 40,580" stroke="#0000b2" stroke-width="4.0" fill="none"/>
<path d="M 400,580 L 420,580 L 480,580" stroke="#0000b2" stroke-width="4.0" fill="none"/>
<path d="M -480,780 L -480,900 L -460,900" stroke="#0000b2" stroke-width="4.0" fill="none"/>
<path d="M -420,900 L -200,900" stroke="#0000b2" stroke-width="4.0" fill="none"/>
<path d="M 140,820 L 140,840 L 180,840 L 184,840" stroke="#0000b2" stroke-width="4.0" fill="none"/>
<path d="M -20,620 L -20,840 L 40,840" stroke="#0000b2" stroke-width="4.0" fill="none"/>
<path d="M 240,780 L 260,780 L 260,800 L 340,800" stroke="#0000b2" stroke-width="4.0" fill="none"/>
<path d="M -560,780 L -480,780 L -200,780" stroke="#0000b2" stroke-width="4.0" fill="none"/>
<path d="M 300,-20 L 300,140 L 340,140" stroke="#0000b2" stroke-width="4.0" fill="none"/>
<path d="M -400,60 L -400,140 L -200,140" stroke="#0000b2" stroke-width="4.0" fill="none"/>
<path d="M -320,-80 L -100,-80 L -100,120 L 180,120 L 184,120" stroke="#0000b2" stroke-width="4.0" fill="none"/>
<path d="M 200,1040 L 460,1040" stroke="#0000b2" stroke-width="4.0" fill="none"/>
<path d="M -20,840 L -20,1040 L 120,1040" stroke="#0000b2" stroke-width="4.0" fill="none"/>
<path d="M -120,80 L 180,80 L 184,80" stroke="#0000b2" stroke-width="4.0" fill="none"/>
<path d="M 240,400 L 260,400 L 260,380 L 340,380" stroke="#0000b2" stroke-width="4.0" fill="none"/>
<path d="M 400,340 L 420,340 L 480,340" stroke="#0000b2" stroke-width="4.0" fill="none"/>
<path d="M -120,660 L 180,660 L 184,660" stroke="#0000b2" stroke-width="4.0" fill="none"/>
<path d="M 120,600 L 140,600 L 140,580 L 180,580 L 184,580" stroke="#0000b2" stroke-width="4.0" fill="none"/>
<path d="M -60,380 L -60,600 L 40,600" stroke="#0000b2" stroke-width="4.0" fill="none"/>
<path d="M 240,860 L 260,860 L 260,840 L 340,840" stroke="#0000b2" stroke-width="4.0" fill="none"/>
<path d="M -120,540 L 180,540 L 184,540" stroke="#0000b2" stroke-width="4.0" fill="none"/>
<path d="M 400,800 L 420,800 L 480,800" stroke="#0000b2" stroke-width="4.0" fill="none"/>
<path d="M -120,160 L 180,160 L 184,160" stroke="#0000b2" stroke-width="4.0" fill="none"/>
<path d="M -580,-100 L -400,-100" stroke="#0000b2" stroke-width="4.0" fill="none"/>
<path d="M 240,100 L 260,100 L 260,120 L 340,120" stroke="#0000b2" stroke-width="4.0" fill="none"/>
<path d="M -560,100 L -480,100 L -200,100" stroke="#0000b2" stroke-width="4.0" fill="none"/>
<path d="M -120,420 L 180,420 L 184,420" stroke="#0000b2" stroke-width="4.0" fill="none"/>
<path d="M -480,560 L -480,680 L -460,680" stroke="#0000b2" stroke-width="4.0" fill="none"/>
<path d="M -420,680 L -200,680" stroke="#0000b2" stroke-width="4.0" fill="none"/>
<path d="M 300,600 L 300,360 L 340,360" stroke="#0000b2" stroke-width="4.0" fill="none"/>
<path d="M 120,360 L 140,360 L 140,340 L 180,340 L 184,340" stroke="#0000b2" stroke-width="4.0" fill="none"/>
<path d="M 140,600 L 140,620 L 180,620 L 184,620" stroke="#0000b2" stroke-width="4.0" fill="none"/>
<path d="M -120,300 L 180,300 L 184,300" stroke="#0000b2" stroke-width="4.0" fill="none"/>
<path d="M -120,880 L 180,880 L 184,880" stroke="#0000b2" stroke-width="4.0" fill="none"/>
<path d="M 240,560 L 260,560 L 260,580 L 340,580" stroke="#0000b2" stroke-width="4.0" fill="none"/>
<path d="M -560,560 L -480,560 L -200,560" stroke="#0000b2" stroke-width="4.0" fill="none"/>
<path d="M 120,820 L 140,820 L 140,800 L 180,800 L 184,800" stroke="#0000b2" stroke-width="4.0" fill="none"/>
<path d="M -480,100 L -480,180 L -460,180" stroke="#0000b2" stroke-width="4.0" fill="none"/>
<path d="M -420,180 L -200,180" stroke="#0000b2" stroke-width="4.0" fill="none"/>
<path d="M 240,180 L 260,180 L 260,160 L 340,160" stroke="#0000b2" stroke-width="4.0" fill="none"/>
<path d="M -120,760 L 180,760 L 184,760" stroke="#0000b2" stroke-width="4.0" fill="none"/>
<path d="M -480,320 L -480,440 L -460,440" stroke="#0000b2" stroke-width="4.0" fill="none"/>
<path d="M -420,440 L -200,440" stroke="#0000b2" stroke-width="4.0" fill="none"/>
<path d="M 400,120 L 420,120 L 480,120" stroke="#0000b2" stroke-width="4.0" fill="none"/>
<path d="M -500,0 L -500,-60 L -400,-60" stroke="#0000b2" stroke-width="4.0" fill="none"/>
<path d="M 20,860 L 20,1020 L 120,1020" stroke="#0000b2" stroke-width="4.0" fill="none"/>
<path d="M 140,360 L 140,380 L 180,380 L 184,380" stroke="#0000b2" stroke-width="4.0" fill="none"/>
<path d="M 40,780 L -100,780 L -100,1080 L 120,1080" stroke="#0000b2" stroke-width="4.0" fill="none"/>
<path d="M 184,200 L 180,200 L -100,200 L -100,340 L 40,340" stroke="#0000b2" stroke-width="4.0" fill="none"/>
<path d="M -100,120 L -100,200" stroke="#0000b2" stroke-width="4.0" fill="none"/>
<path d="M -100,580 L -100,780" stroke="#0000b2" stroke-width="4.0" fill="none"/>
<path d="M 420,340 L 420,480 L -20,480 L -20,620 L 40,620" stroke="#0000b2" stroke-width="4.0" fill="none"/>
<path d="M 120,1000 L 100,1000 L 100,940 L 420,940 L 420,800" stroke="#0000b2" stroke-width="4.0" fill="none"/>
<path d="M 40,860 L 20,860 L 20,700 L 420,700 L 420,580" stroke="#0000b2" stroke-width="4.0" fill="none"/>
<path d="M 420,120 L 420,240 L -60,240 L -60,380 L 40,380" stroke="#0000b2" stroke-width="4.0" fill="none"/>
<path d="M 40,800 L -60,800 L -60,1060 L 120,1060" stroke="#0000b2" stroke-width="4.0" fill="none"/>
<path d="M -60,600 L -60,800" stroke="#0000b2" stroke-width="4.0" fill="none"/>
<path d="M 340,600 L 300,600 L 300,820 L 340,820" stroke="#0000b2" stroke-width="4.0" fill="none"/>
<path d="M 300,140 L 300,360" stroke="#0000b2" stroke-width="4.0" fill="none"/>
<path d="M -200,400 L -400,400 L -400,280 L -200,280" stroke="#0000b2" stroke-width="4.0" fill="none"/>
<path d="M -200,640 L -400,640 L -400,520 L -200,520" stroke="#0000b2" stroke-width="4.0" fill="none"/>
<path d="M -200,860 L -400,860 L -400,740 L -200,740" stroke="#0000b2" stroke-width="4.0" fill="none"/>
<path d="M -400,400 L -400,520" stroke="#0000b2" stroke-width="4.0" fill="none"/>
<path d="M -400,140 L -400,280" stroke="#0000b2" stroke-width="4.0" fill="none"/>
<path d="M -400,640 L -400,740" stroke="#0000b2" stroke-width="4.0" fill="none"/>
<path d="M 632,140 L 682,140" stroke-dasharray="4.0,4.0" stroke="#000000" stroke-width="1.0" fill="none"/>
<path d="M 632,175 L 682,175" stroke-dasharray="4.0,4.0" stroke="#000000" stroke-width="1.0" fill="none"/>
<path d="M 682,105 L 632,105 L 632,210 L 682,210 Z" stroke-dasharray="4.0,4.0" stroke="#000000" stroke-width="1.0" fill="none"/>
<path d="M 657,105 L 657,210" stroke-dasharray="4.0,4.0" stroke="#000000" stroke-width="1.0" fill="none"/>
<g>
<circle cx="-500.0" cy="0.0" r="4.0" stroke="#0000b2" stroke-width="4.0" fill="#0000b2" />
<circle cx="-480.0" cy="320.0" r="4.0" stroke="#0000b2" stroke-width="4.0" fill="#0000b2" />
<circle cx="-400.0" cy="640.0" r="4.0" stroke="#0000b2" stroke-width="4.0" fill="#0000b2" />
<circle cx="-100.0" cy="580.0" r="4.0" stroke="#0000b2" stroke-width="4.0" fill="#0000b2" />
<circle cx="420.0" cy="580.0" r="4.0" stroke="#0000b2" stroke-width="4.0" fill="#0000b2" />
<circle cx="-20.0" cy="840.0" r="4.0" stroke="#0000b2" stroke-width="4.0" fill="#0000b2" />
<circle cx="-100.0" cy="200.0" r="4.0" stroke="#0000b2" stroke-width="4.0" fill="#0000b2" />
<circle cx="-400.0" cy="520.0" r="4.0" stroke="#0000b2" stroke-width="4.0" fill="#0000b2" />
<circle cx="-100.0" cy="780.0" r="4.0" stroke="#0000b2" stroke-width="4.0" fill="#0000b2" />
<circle cx="-480.0" cy="780.0" r="4.0" stroke="#0000b2" stroke-width="4.0" fill="#0000b2" />
<circle cx="300.0" cy="140.0" r="4.0" stroke="#0000b2" stroke-width="4.0" fill="#0000b2" />
<circle cx="-400.0" cy="140.0" r="4.0" stroke="#0000b2" stroke-width="4.0" fill="#0000b2" />
<circle cx="-400.0" cy="400.0" r="4.0" stroke="#0000b2" stroke-width="4.0" fill="#0000b2" />
<circle cx="-100.0" cy="340.0" r="4.0" stroke="#0000b2" stroke-width="4.0" fill="#0000b2" />
<circle cx="420.0" cy="340.0" r="4.0" stroke="#0000b2" stroke-width="4.0" fill="#0000b2" />
<circle cx="300.0" cy="600.0" r="4.0" stroke="#0000b2" stroke-width="4.0" fill="#0000b2" />
<circle cx="140.0" cy="600.0" r="4.0" stroke="#0000b2" stroke-width="4.0" fill="#0000b2" />
<circle cx="-60.0" cy="600.0" r="4.0" stroke="#0000b2" stroke-width="4.0" fill="#0000b2" />
<circle cx="-400.0" cy="280.0" r="4.0" stroke="#0000b2" stroke-width="4.0" fill="#0000b2" />
<circle cx="20.0" cy="860.0" r="4.0" stroke="#0000b2" stroke-width="4.0" fill="#0000b2" />
<circle cx="-60.0" cy="800.0" r="4.0" stroke="#0000b2" stroke-width="4.0" fill="#0000b2" />
<circle cx="420.0" cy="800.0" r="4.0" stroke="#0000b2" stroke-width="4.0" fill="#0000b2" />
<circle cx="-400.0" cy="740.0" r="4.0" stroke="#0000b2" stroke-width="4.0" fill="#0000b2" />
<circle cx="-480.0" cy="100.0" r="4.0" stroke="#0000b2" stroke-width="4.0" fill="#0000b2" />
<circle cx="300.0" cy="360.0" r="4.0" stroke="#0000b2" stroke-width="4.0" fill="#0000b2" />
<circle cx="140.0" cy="360.0" r="4.0" stroke="#0000b2" stroke-width="4.0" fill="#0000b2" />
<circle cx="-20.0" cy="620.0" r="4.0" stroke="#0000b2" stroke-width="4.0" fill="#0000b2" />
<circle cx="-480.0" cy="560.0" r="4.0" stroke="#0000b2" stroke-width="4.0" fill="#0000b2" />
<circle cx="140.0" cy="820.0" r="4.0" stroke="#0000b2" stroke-width="4.0" fill="#0000b2" />
<circle cx="-100.0" cy="120.0" r="4.0" stroke="#0000b2" stroke-width="4.0" fill="#0000b2" />
<circle cx="420.0" cy="120.0" r="4.0" stroke="#0000b2" stroke-width="4.0" fill="#0000b2" />
<circle cx="-60.0" cy="380.0" r="4.0" stroke="#0000b2" stroke-width="4.0" fill="#0000b2" />
<circle cx="-400.0" cy="60.0" r="4.0" stroke="#0000b2" stroke-width="4.0" fill="#0000b2" />
</g>
<g>
<path d="M 341,110 L 399,110 L 399,170 L 341,170 Z" stroke="#000000" stroke-width="4.0" fill="none"/>
<text text-anchor="middle" x="370.0" y="102.0" fill="#000000" style="font-size:24px">Z<tspan style="font-size:80%;baseline-shift:sub;">0</tspan><tspan style="font-size:80%;baseline-shift:super;">n</tspan></text>
<text text-anchor="start" x="344.0" y="126.75" fill="#808080" style="font-size:18px">J</text>
<path d="M 341,147 L 348,140 L 341,133" stroke="#000000" stroke-width="2.0" fill="none"/>
<text text-anchor="start" x="351.0" y="146.75" fill="#808080" style="font-size:18px">C</text>
<text text-anchor="start" x="344.0" y="166.75" fill="#808080" style="font-size:18px">K</text>
<text text-anchor="end" x="396.0" y="126.75" fill="#808080" style="font-size:18px">Q</text>
<text text-anchor="end" x="396.0" y="146.75" fill="#808080" style="font-size:18px"><tspan style="text-decoration:overline;">Q</tspan></text>
<text text-anchor="middle" x="370.0" y="187.5" fill="#808080" style="font-size:18px">JK</text>
<circle cx="340.0" cy="120.0" r="2.0" stroke="#0000b2" stroke-width="4.0" fill="#0000b2" />
<circle cx="340.0" cy="140.0" r="2.0" stroke="#0000b2" stroke-width="4.0" fill="#0000b2" />
<circle cx="340.0" cy="160.0" r="2.0" stroke="#0000b2" stroke-width="4.0" fill="#0000b2" />
<circle cx="400.0" cy="120.0" r="2.0" stroke="#b20000" stroke-width="4.0" fill="#b20000" />
<circle cx="400.0" cy="140.0" r="2.0" stroke="#b20000" stroke-width="4.0" fill="#b20000" />
</g>
<g>
<path d="M -350,-50 L -399,-50 L -399,-110 L -350,-110 C -340,-110 -320,-100 -321,-80 C -321,-60 -340,-50 -350,-50 Z" stroke="#000000" stroke-width="4.0" fill="none"/>
<circle cx="-400.0" cy="-100.0" r="2.0" stroke="#0000b2" stroke-width="4.0" fill="#0000b2" />
<circle cx="-400.0" cy="-60.0" r="2.0" stroke="#0000b2" stroke-width="4.0" fill="#0000b2" />
<circle cx="-320.0" cy="-80.0" r="2.0" stroke="#b20000" stroke-width="4.0" fill="#b20000" />
</g>
<g>
<path d="M 90,390 L 41,390 L 41,330 L 90,330 C 100,330 120,340 119,360 C 119,380 100,390 90,390 Z" stroke="#000000" stroke-width="4.0" fill="none"/>
<circle cx="40.0" cy="340.0" r="2.0" stroke="#0000b2" stroke-width="4.0" fill="#0000b2" />
<circle cx="40.0" cy="380.0" r="2.0" stroke="#0000b2" stroke-width="4.0" fill="#0000b2" />
<circle cx="120.0" cy="360.0" r="2.0" stroke="#b20000" stroke-width="4.0" fill="#b20000" />
</g>
<g>
<path d="M 341,330 L 399,330 L 399,390 L 341,390 Z" stroke="#000000" stroke-width="4.0" fill="none"/>
<text text-anchor="middle" x="370.0" y="322.0" fill="#000000" style="font-size:24px">Z<tspan style="font-size:80%;baseline-shift:sub;">1</tspan><tspan style="font-size:80%;baseline-shift:super;">n</tspan></text>
<text text-anchor="start" x="344.0" y="346.75" fill="#808080" style="font-size:18px">J</text>
<path d="M 341,367 L 348,360 L 341,353" stroke="#000000" stroke-width="2.0" fill="none"/>
<text text-anchor="start" x="351.0" y="366.75" fill="#808080" style="font-size:18px">C</text>
<text text-anchor="start" x="344.0" y="386.75" fill="#808080" style="font-size:18px">K</text>
<text text-anchor="end" x="396.0" y="346.75" fill="#808080" style="font-size:18px">Q</text>
<text text-anchor="end" x="396.0" y="366.75" fill="#808080" style="font-size:18px"><tspan style="text-decoration:overline;">Q</tspan></text>
<text text-anchor="middle" x="370.0" y="407.5" fill="#808080" style="font-size:18px">JK</text>
<circle cx="340.0" cy="340.0" r="2.0" stroke="#0000b2" stroke-width="4.0" fill="#0000b2" />
<circle cx="340.0" cy="360.0" r="2.0" stroke="#0000b2" stroke-width="4.0" fill="#0000b2" />
<circle cx="340.0" cy="380.0" r="2.0" stroke="#0000b2" stroke-width="4.0" fill="#0000b2" />
<circle cx="400.0" cy="340.0" r="2.0" stroke="#b20000" stroke-width="4.0" fill="#b20000" />
<circle cx="400.0" cy="360.0" r="2.0" stroke="#b20000" stroke-width="4.0" fill="#b20000" />
</g>
<g>
<path d="M 90,850 L 41,850 L 41,790 L 90,790 C 100,790 120,800 119,820 C 119,840 100,850 90,850 Z" stroke="#000000" stroke-width="4.0" fill="none"/>
<circle cx="40.0" cy="780.0" r="2.0" stroke="#0000b2" stroke-width="4.0" fill="#0000b2" />
<circle cx="40.0" cy="800.0" r="2.0" stroke="#0000b2" stroke-width="4.0" fill="#0000b2" />
<circle cx="40.0" cy="840.0" r="2.0" stroke="#0000b2" stroke-width="4.0" fill="#0000b2" />
<circle cx="40.0" cy="860.0" r="2.0" stroke="#0000b2" stroke-width="4.0" fill="#0000b2" />
<circle cx="120.0" cy="820.0" r="2.0" stroke="#b20000" stroke-width="4.0" fill="#b20000" />
</g>
<g>
<path d="M 341,570 L 399,570 L 399,630 L 341,630 Z" stroke="#000000" stroke-width="4.0" fill="none"/>
<text text-anchor="middle" x="370.0" y="562.0" fill="#000000" style="font-size:24px">Z<tspan style="font-size:80%;baseline-shift:sub;">2</tspan><tspan style="font-size:80%;baseline-shift:super;">n</tspan></text>
<text text-anchor="start" x="344.0" y="586.75" fill="#808080" style="font-size:18px">J</text>
<path d="M 341,607 L 348,600 L 341,593" stroke="#000000" stroke-width="2.0" fill="none"/>
<text text-anchor="start" x="351.0" y="606.75" fill="#808080" style="font-size:18px">C</text>
<text text-anchor="start" x="344.0" y="626.75" fill="#808080" style="font-size:18px">K</text>
<text text-anchor="end" x="396.0" y="586.75" fill="#808080" style="font-size:18px">Q</text>
<text text-anchor="end" x="396.0" y="606.75" fill="#808080" style="font-size:18px"><tspan style="text-decoration:overline;">Q</tspan></text>
<text text-anchor="middle" x="370.0" y="647.5" fill="#808080" style="font-size:18px">JK</text>
<circle cx="340.0" cy="580.0" r="2.0" stroke="#0000b2" stroke-width="4.0" fill="#0000b2" />
<circle cx="340.0" cy="600.0" r="2.0" stroke="#0000b2" stroke-width="4.0" fill="#0000b2" />
<circle cx="340.0" cy="620.0" r="2.0" stroke="#0000b2" stroke-width="4.0" fill="#0000b2" />
<circle cx="400.0" cy="580.0" r="2.0" stroke="#b20000" stroke-width="4.0" fill="#b20000" />
<circle cx="400.0" cy="600.0" r="2.0" stroke="#b20000" stroke-width="4.0" fill="#b20000" />
</g>
<g>
<path d="M 90,630 L 41,630 L 41,570 L 90,570 C 100,570 120,580 119,600 C 119,620 100,630 90,630 Z" stroke="#000000" stroke-width="4.0" fill="none"/>
<circle cx="40.0" cy="580.0" r="2.0" stroke="#0000b2" stroke-width="4.0" fill="#0000b2" />
<circle cx="40.0" cy="600.0" r="2.0" stroke="#0000b2" stroke-width="4.0" fill="#0000b2" />
<circle cx="40.0" cy="620.0" r="2.0" stroke="#0000b2" stroke-width="4.0" fill="#0000b2" />
<circle cx="120.0" cy="600.0" r="2.0" stroke="#b20000" stroke-width="4.0" fill="#b20000" />
</g>
<g>
<path d="M -150,110 L -199,110 L -199,50 L -150,50 C -140,50 -120,60 -121,80 C -121,100 -140,110 -150,110 Z" stroke="#000000" stroke-width="4.0" fill="none"/>
<circle cx="-200.0" cy="60.0" r="2.0" stroke="#0000b2" stroke-width="4.0" fill="#0000b2" />
<circle cx="-200.0" cy="100.0" r="2.0" stroke="#0000b2" stroke-width="4.0" fill="#0000b2" />
<circle cx="-120.0" cy="80.0" r="2.0" stroke="#b20000" stroke-width="4.0" fill="#b20000" />
</g>
<g>
<path d="M 341,790 L 399,790 L 399,850 L 341,850 Z" stroke="#000000" stroke-width="4.0" fill="none"/>
<text text-anchor="middle" x="370.0" y="782.0" fill="#000000" style="font-size:24px">Z<tspan style="font-size:80%;baseline-shift:sub;">3</tspan><tspan style="font-size:80%;baseline-shift:super;">n</tspan></text>
<text text-anchor="start" x="344.0" y="806.75" fill="#808080" style="font-size:18px">J</text>
<path d="M 341,827 L 348,820 L 341,813" stroke="#000000" stroke-width="2.0" fill="none"/>
<text text-anchor="start" x="351.0" y="826.75" fill="#808080" style="font-size:18px">C</text>
<text text-anchor="start" x="344.0" y="846.75" fill="#808080" style="font-size:18px">K</text>
<text text-anchor="end" x="396.0" y="806.75" fill="#808080" style="font-size:18px">Q</text>
<text text-anchor="end" x="396.0" y="826.75" fill="#808080" style="font-size:18px"><tspan style="text-decoration:overline;">Q</tspan></text>
<text text-anchor="middle" x="370.0" y="867.5" fill="#808080" style="font-size:18px">JK</text>
<circle cx="340.0" cy="800.0" r="2.0" stroke="#0000b2" stroke-width="4.0" fill="#0000b2" />
<circle cx="340.0" cy="820.0" r="2.0" stroke="#0000b2" stroke-width="4.0" fill="#0000b2" />
<circle cx="340.0" cy="840.0" r="2.0" stroke="#0000b2" stroke-width="4.0" fill="#0000b2" />
<circle cx="400.0" cy="800.0" r="2.0" stroke="#b20000" stroke-width="4.0" fill="#b20000" />
<circle cx="400.0" cy="820.0" r="2.0" stroke="#b20000" stroke-width="4.0" fill="#b20000" />
</g>
<g>
<path d="M -150,190 L -199,190 L -199,130 L -150,130 C -140,130 -120,140 -121,160 C -121,180 -140,190 -150,190 Z" stroke="#000000" stroke-width="4.0" fill="none"/>
<circle cx="-200.0" cy="140.0" r="2.0" stroke="#0000b2" stroke-width="4.0" fill="#0000b2" />
<circle cx="-200.0" cy="180.0" r="2.0" stroke="#0000b2" stroke-width="4.0" fill="#0000b2" />
<circle cx="-120.0" cy="160.0" r="2.0" stroke="#b20000" stroke-width="4.0" fill="#b20000" />
</g>
<g>
<circle cx="476.0" cy="1040.0" r="9.0" stroke="#000000" stroke-width="4.0" fill="none" />
<circle cx="476.0" cy="1040.0" r="15.0" stroke="#000000" stroke-width="4.0" fill="none" />
<text text-anchor="start" x="505.0" y="1049.0" fill="#000000" style="font-size:24px"><tspan style="font-style:italic;">ov</tspan></text>
<circle cx="460.0" cy="1040.0" r="2.0" stroke="#0000b2" stroke-width="4.0" fill="#0000b2" />
</g>
<g>
<path d="M 170,1070 L 121,1070 L 121,1010 L 170,1010 C 180,1010 200,1020 199,1040 C 199,1060 180,1070 170,1070 Z" stroke="#000000" stroke-width="4.0" fill="none"/>
<circle cx="120.0" cy="1000.0" r="2.0" stroke="#0000b2" stroke-width="4.0" fill="#0000b2" />
<circle cx="120.0" cy="1020.0" r="2.0" stroke="#0000b2" stroke-width="4.0" fill="#0000b2" />
<circle cx="120.0" cy="1040.0" r="2.0" stroke="#0000b2" stroke-width="4.0" fill="#0000b2" />
<circle cx="120.0" cy="1060.0" r="2.0" stroke="#0000b2" stroke-width="4.0" fill="#0000b2" />
<circle cx="120.0" cy="1080.0" r="2.0" stroke="#0000b2" stroke-width="4.0" fill="#0000b2" />
<circle cx="200.0" cy="1040.0" r="2.0" stroke="#b20000" stroke-width="4.0" fill="#b20000" />
</g>
<g>
<path d="M -611,-115 L -581,-115 L -581,-85 L -611,-85 Z" stroke="#000000" stroke-width="4.0" fill="none"/>
<circle cx="-596.0" cy="-100.0" r="9.0" stroke="#000000" stroke-width="4.0" fill="none" />
<text text-anchor="end" x="-625.0" y="-91.0" fill="#000000" style="font-size:24px"><tspan style="font-style:italic;">Compte</tspan></text>
<circle cx="-580.0" cy="-100.0" r="2.0" stroke="#b20000" stroke-width="4.0" fill="#b20000" />
</g>
<g>
<path d="M -559,-12 L -541,0 L -559,12 Z" stroke="#000000" stroke-width="4.0" fill="none"/>
<circle cx="-530.0" cy="0.0" r="9.0" stroke="#000000" stroke-width="4.0" fill="none" />
<circle cx="-560.0" cy="0.0" r="2.0" stroke="#0000b2" stroke-width="4.0" fill="#0000b2" />
<circle cx="-520.0" cy="0.0" r="2.0" stroke="#b20000" stroke-width="4.0" fill="#b20000" />
</g>
<g>
<path d="M -611,-15 L -581,-15 L -581,15 L -611,15 Z" stroke="#000000" stroke-width="4.0" fill="none"/>
<circle cx="-596.0" cy="0.0" r="9.0" stroke="#000000" stroke-width="4.0" fill="none" />
<text text-anchor="end" x="-625.0" y="9.0" fill="#000000" style="font-size:24px"><tspan style="font-style:italic;">Charge</tspan></text>
<circle cx="-580.0" cy="0.0" r="2.0" stroke="#b20000" stroke-width="4.0" fill="#b20000" />
</g>
<g>
<path d="M -459,168 L -441,180 L -459,192 Z" stroke="#000000" stroke-width="4.0" fill="none"/>
<circle cx="-430.0" cy="180.0" r="9.0" stroke="#000000" stroke-width="4.0" fill="none" />
<circle cx="-460.0" cy="180.0" r="2.0" stroke="#0000b2" stroke-width="4.0" fill="#0000b2" />
<circle cx="-420.0" cy="180.0" r="2.0" stroke="#b20000" stroke-width="4.0" fill="#b20000" />
</g>
<g>
<path d="M 315,-51 L 315,-21 L 285,-21 L 285,-51 Z" stroke="#000000" stroke-width="4.0" fill="none"/>
<text text-anchor="start" x="300.0" y="-56.0" fill="#000000" style="font-size:24px" transform="rotate(-90,300.0,-65.0)" ><tspan style="font-style:italic;">C</tspan></text>
<path d="M 295,-45 L 295,-40 L 305,-40 L 305,-35 L 295,-35 L 295,-30 L 305,-30 L 305,-25" stroke="#000000" stroke-width="2.0" fill="none"/>
<circle cx="300.0" cy="-20.0" r="2.0" stroke="#b20000" stroke-width="4.0" fill="#b20000" />
</g>
<g>
<path d="M 190,130 L 180,130 C 190,120 190,80 180,70 L 190,70 C 200,70 220,80 240,100 C 220,120 200,130 190,130 Z" stroke="#000000" stroke-width="4.0" fill="none"/>
<circle cx="180.0" cy="80.0" r="2.0" stroke="#0000b2" stroke-width="4.0" fill="#0000b2" />
<circle cx="180.0" cy="120.0" r="2.0" stroke="#0000b2" stroke-width="4.0" fill="#0000b2" />
<circle cx="240.0" cy="100.0" r="2.0" stroke="#b20000" stroke-width="4.0" fill="#b20000" />
</g>
<g>
<path d="M 190,210 L 180,210 C 190,200 190,160 180,150 L 190,150 C 200,150 220,160 240,180 C 220,200 200,210 190,210 Z" stroke="#000000" stroke-width="4.0" fill="none"/>
<circle cx="180.0" cy="160.0" r="2.0" stroke="#0000b2" stroke-width="4.0" fill="#0000b2" />
<circle cx="180.0" cy="200.0" r="2.0" stroke="#0000b2" stroke-width="4.0" fill="#0000b2" />
<circle cx="240.0" cy="180.0" r="2.0" stroke="#b20000" stroke-width="4.0" fill="#b20000" />
</g>
<g>
<path d="M 190,350 L 180,350 C 190,340 190,300 180,290 L 190,290 C 200,290 220,300 240,320 C 220,340 200,350 190,350 Z" stroke="#000000" stroke-width="4.0" fill="none"/>
<circle cx="180.0" cy="300.0" r="2.0" stroke="#0000b2" stroke-width="4.0" fill="#0000b2" />
<circle cx="180.0" cy="340.0" r="2.0" stroke="#0000b2" stroke-width="4.0" fill="#0000b2" />
<circle cx="240.0" cy="320.0" r="2.0" stroke="#b20000" stroke-width="4.0" fill="#b20000" />
</g>
<g>
<path d="M 190,430 L 180,430 C 190,420 190,380 180,370 L 190,370 C 200,370 220,380 240,400 C 220,420 200,430 190,430 Z" stroke="#000000" stroke-width="4.0" fill="none"/>
<circle cx="180.0" cy="380.0" r="2.0" stroke="#0000b2" stroke-width="4.0" fill="#0000b2" />
<circle cx="180.0" cy="420.0" r="2.0" stroke="#0000b2" stroke-width="4.0" fill="#0000b2" />
<circle cx="240.0" cy="400.0" r="2.0" stroke="#b20000" stroke-width="4.0" fill="#b20000" />
</g>
<g>
<path d="M 190,590 L 180,590 C 190,580 190,540 180,530 L 190,530 C 200,530 220,540 240,560 C 220,580 200,590 190,590 Z" stroke="#000000" stroke-width="4.0" fill="none"/>
<circle cx="180.0" cy="540.0" r="2.0" stroke="#0000b2" stroke-width="4.0" fill="#0000b2" />
<circle cx="180.0" cy="580.0" r="2.0" stroke="#0000b2" stroke-width="4.0" fill="#0000b2" />
<circle cx="240.0" cy="560.0" r="2.0" stroke="#b20000" stroke-width="4.0" fill="#b20000" />
</g>
<g>
<path d="M 190,670 L 180,670 C 190,660 190,620 180,610 L 190,610 C 200,610 220,620 240,640 C 220,660 200,670 190,670 Z" stroke="#000000" stroke-width="4.0" fill="none"/>
<circle cx="180.0" cy="620.0" r="2.0" stroke="#0000b2" stroke-width="4.0" fill="#0000b2" />
<circle cx="180.0" cy="660.0" r="2.0" stroke="#0000b2" stroke-width="4.0" fill="#0000b2" />
<circle cx="240.0" cy="640.0" r="2.0" stroke="#b20000" stroke-width="4.0" fill="#b20000" />
</g>
<g>
<path d="M 190,810 L 180,810 C 190,800 190,760 180,750 L 190,750 C 200,750 220,760 240,780 C 220,800 200,810 190,810 Z" stroke="#000000" stroke-width="4.0" fill="none"/>
<circle cx="180.0" cy="760.0" r="2.0" stroke="#0000b2" stroke-width="4.0" fill="#0000b2" />
<circle cx="180.0" cy="800.0" r="2.0" stroke="#0000b2" stroke-width="4.0" fill="#0000b2" />
<circle cx="240.0" cy="780.0" r="2.0" stroke="#b20000" stroke-width="4.0" fill="#b20000" />
</g>
<g>
<path d="M 190,890 L 180,890 C 190,880 190,840 180,830 L 190,830 C 200,830 220,840 240,860 C 220,880 200,890 190,890 Z" stroke="#000000" stroke-width="4.0" fill="none"/>
<circle cx="180.0" cy="840.0" r="2.0" stroke="#0000b2" stroke-width="4.0" fill="#0000b2" />
<circle cx="180.0" cy="880.0" r="2.0" stroke="#0000b2" stroke-width="4.0" fill="#0000b2" />
<circle cx="240.0" cy="860.0" r="2.0" stroke="#b20000" stroke-width="4.0" fill="#b20000" />
</g>
<g>
<path d="M -479,-12 L -461,0 L -479,12 Z" stroke="#000000" stroke-width="4.0" fill="none"/>
<circle cx="-450.0" cy="0.0" r="9.0" stroke="#000000" stroke-width="4.0" fill="none" />
<circle cx="-480.0" cy="0.0" r="2.0" stroke="#0000b2" stroke-width="4.0" fill="#0000b2" />
<circle cx="-440.0" cy="0.0" r="2.0" stroke="#b20000" stroke-width="4.0" fill="#b20000" />
</g>
<g>
<path d="M -150,330 L -199,330 L -199,270 L -150,270 C -140,270 -120,280 -121,300 C -121,320 -140,330 -150,330 Z" stroke="#000000" stroke-width="4.0" fill="none"/>
<circle cx="-200.0" cy="280.0" r="2.0" stroke="#0000b2" stroke-width="4.0" fill="#0000b2" />
<circle cx="-200.0" cy="320.0" r="2.0" stroke="#0000b2" stroke-width="4.0" fill="#0000b2" />
<circle cx="-120.0" cy="300.0" r="2.0" stroke="#b20000" stroke-width="4.0" fill="#b20000" />
</g>
<g>
<path d="M -591,85 L -561,85 L -561,115 L -591,115 Z" stroke="#000000" stroke-width="4.0" fill="none"/>
<circle cx="-576.0" cy="100.0" r="9.0" stroke="#000000" stroke-width="4.0" fill="none" />
<text text-anchor="end" x="-605.0" y="109.0" fill="#000000" style="font-size:24px"><tspan style="font-style:italic;">I<tspan style="font-size:80%;baseline-shift:sub;">0</tspan></tspan></text>
<circle cx="-560.0" cy="100.0" r="2.0" stroke="#b20000" stroke-width="4.0" fill="#b20000" />
</g>
<g>
<path d="M -150,450 L -199,450 L -199,390 L -150,390 C -140,390 -120,400 -121,420 C -121,440 -140,450 -150,450 Z" stroke="#000000" stroke-width="4.0" fill="none"/>
<circle cx="-200.0" cy="400.0" r="2.0" stroke="#0000b2" stroke-width="4.0" fill="#0000b2" />
<circle cx="-200.0" cy="440.0" r="2.0" stroke="#0000b2" stroke-width="4.0" fill="#0000b2" />
<circle cx="-120.0" cy="420.0" r="2.0" stroke="#b20000" stroke-width="4.0" fill="#b20000" />
</g>
<g>
<path d="M -459,428 L -441,440 L -459,452 Z" stroke="#000000" stroke-width="4.0" fill="none"/>
<circle cx="-430.0" cy="440.0" r="9.0" stroke="#000000" stroke-width="4.0" fill="none" />
<circle cx="-460.0" cy="440.0" r="2.0" stroke="#0000b2" stroke-width="4.0" fill="#0000b2" />
<circle cx="-420.0" cy="440.0" r="2.0" stroke="#b20000" stroke-width="4.0" fill="#b20000" />
</g>
<g>
<path d="M -591,305 L -561,305 L -561,335 L -591,335 Z" stroke="#000000" stroke-width="4.0" fill="none"/>
<circle cx="-576.0" cy="320.0" r="9.0" stroke="#000000" stroke-width="4.0" fill="none" />
<text text-anchor="end" x="-605.0" y="329.0" fill="#000000" style="font-size:24px"><tspan style="font-style:italic;">I<tspan style="font-size:80%;baseline-shift:sub;">1</tspan></tspan></text>
<circle cx="-560.0" cy="320.0" r="2.0" stroke="#b20000" stroke-width="4.0" fill="#b20000" />
</g>
<g>
<path d="M -459,668 L -441,680 L -459,692 Z" stroke="#000000" stroke-width="4.0" fill="none"/>
<circle cx="-430.0" cy="680.0" r="9.0" stroke="#000000" stroke-width="4.0" fill="none" />
<circle cx="-460.0" cy="680.0" r="2.0" stroke="#0000b2" stroke-width="4.0" fill="#0000b2" />
<circle cx="-420.0" cy="680.0" r="2.0" stroke="#b20000" stroke-width="4.0" fill="#b20000" />
</g>
<g>
<path d="M -591,545 L -561,545 L -561,575 L -591,575 Z" stroke="#000000" stroke-width="4.0" fill="none"/>
<circle cx="-576.0" cy="560.0" r="9.0" stroke="#000000" stroke-width="4.0" fill="none" />
<text text-anchor="end" x="-605.0" y="569.0" fill="#000000" style="font-size:24px"><tspan style="font-style:italic;">I<tspan style="font-size:80%;baseline-shift:sub;">2</tspan></tspan></text>
<circle cx="-560.0" cy="560.0" r="2.0" stroke="#b20000" stroke-width="4.0" fill="#b20000" />
</g>
<g>
<path d="M -459,888 L -441,900 L -459,912 Z" stroke="#000000" stroke-width="4.0" fill="none"/>
<circle cx="-430.0" cy="900.0" r="9.0" stroke="#000000" stroke-width="4.0" fill="none" />
<circle cx="-460.0" cy="900.0" r="2.0" stroke="#0000b2" stroke-width="4.0" fill="#0000b2" />
<circle cx="-420.0" cy="900.0" r="2.0" stroke="#b20000" stroke-width="4.0" fill="#b20000" />
</g>
<g>
<path d="M -591,765 L -561,765 L -561,795 L -591,795 Z" stroke="#000000" stroke-width="4.0" fill="none"/>
<circle cx="-576.0" cy="780.0" r="9.0" stroke="#000000" stroke-width="4.0" fill="none" />
<text text-anchor="end" x="-605.0" y="789.0" fill="#000000" style="font-size:24px"><tspan style="font-style:italic;">I<tspan style="font-size:80%;baseline-shift:sub;">3</tspan></tspan></text>
<circle cx="-560.0" cy="780.0" r="2.0" stroke="#b20000" stroke-width="4.0" fill="#b20000" />
</g>
<g>
<path d="M -150,570 L -199,570 L -199,510 L -150,510 C -140,510 -120,520 -121,540 C -121,560 -140,570 -150,570 Z" stroke="#000000" stroke-width="4.0" fill="none"/>
<circle cx="-200.0" cy="520.0" r="2.0" stroke="#0000b2" stroke-width="4.0" fill="#0000b2" />
<circle cx="-200.0" cy="560.0" r="2.0" stroke="#0000b2" stroke-width="4.0" fill="#0000b2" />
<circle cx="-120.0" cy="540.0" r="2.0" stroke="#b20000" stroke-width="4.0" fill="#b20000" />
</g>
<g>
<path d="M -150,690 L -199,690 L -199,630 L -150,630 C -140,630 -120,640 -121,660 C -121,680 -140,690 -150,690 Z" stroke="#000000" stroke-width="4.0" fill="none"/>
<circle cx="-200.0" cy="640.0" r="2.0" stroke="#0000b2" stroke-width="4.0" fill="#0000b2" />
<circle cx="-200.0" cy="680.0" r="2.0" stroke="#0000b2" stroke-width="4.0" fill="#0000b2" />
<circle cx="-120.0" cy="660.0" r="2.0" stroke="#b20000" stroke-width="4.0" fill="#b20000" />
</g>
<g>
<path d="M -150,790 L -199,790 L -199,730 L -150,730 C -140,730 -120,740 -121,760 C -121,780 -140,790 -150,790 Z" stroke="#000000" stroke-width="4.0" fill="none"/>
<circle cx="-200.0" cy="740.0" r="2.0" stroke="#0000b2" stroke-width="4.0" fill="#0000b2" />
<circle cx="-200.0" cy="780.0" r="2.0" stroke="#0000b2" stroke-width="4.0" fill="#0000b2" />
<circle cx="-120.0" cy="760.0" r="2.0" stroke="#b20000" stroke-width="4.0" fill="#b20000" />
</g>
<g>
<path d="M -150,910 L -199,910 L -199,850 L -150,850 C -140,850 -120,860 -121,880 C -121,900 -140,910 -150,910 Z" stroke="#000000" stroke-width="4.0" fill="none"/>
<circle cx="-200.0" cy="860.0" r="2.0" stroke="#0000b2" stroke-width="4.0" fill="#0000b2" />
<circle cx="-200.0" cy="900.0" r="2.0" stroke="#0000b2" stroke-width="4.0" fill="#0000b2" />
<circle cx="-120.0" cy="880.0" r="2.0" stroke="#b20000" stroke-width="4.0" fill="#b20000" />
</g>
<g>
<circle cx="496.0" cy="120.0" r="9.0" stroke="#000000" stroke-width="4.0" fill="none" />
<circle cx="496.0" cy="120.0" r="15.0" stroke="#000000" stroke-width="4.0" fill="none" />
<text text-anchor="start" x="525.0" y="129.0" fill="#000000" style="font-size:24px"><tspan style="font-style:italic;">A<tspan style="font-size:80%;baseline-shift:sub;">0</tspan></tspan></text>
<circle cx="480.0" cy="120.0" r="2.0" stroke="#0000b2" stroke-width="4.0" fill="#0000b2" />
</g>
<g>
<circle cx="496.0" cy="340.0" r="9.0" stroke="#000000" stroke-width="4.0" fill="none" />
<circle cx="496.0" cy="340.0" r="15.0" stroke="#000000" stroke-width="4.0" fill="none" />
<text text-anchor="start" x="525.0" y="349.0" fill="#000000" style="font-size:24px"><tspan style="font-style:italic;">A<tspan style="font-size:80%;baseline-shift:sub;">1</tspan></tspan></text>
<circle cx="480.0" cy="340.0" r="2.0" stroke="#0000b2" stroke-width="4.0" fill="#0000b2" />
</g>
<g>
<circle cx="496.0" cy="580.0" r="9.0" stroke="#000000" stroke-width="4.0" fill="none" />
<circle cx="496.0" cy="580.0" r="15.0" stroke="#000000" stroke-width="4.0" fill="none" />
<text text-anchor="start" x="525.0" y="589.0" fill="#000000" style="font-size:24px"><tspan style="font-style:italic;">A<tspan style="font-size:80%;baseline-shift:sub;">2</tspan></tspan></text>
<circle cx="480.0" cy="580.0" r="2.0" stroke="#0000b2" stroke-width="4.0" fill="#0000b2" />
</g>
<g>
<circle cx="496.0" cy="800.0" r="9.0" stroke="#000000" stroke-width="4.0" fill="none" />
<circle cx="496.0" cy="800.0" r="15.0" stroke="#000000" stroke-width="4.0" fill="none" />
<text text-anchor="start" x="525.0" y="809.0" fill="#000000" style="font-size:24px"><tspan style="font-style:italic;">A<tspan style="font-size:80%;baseline-shift:sub;">3</tspan></tspan></text>
<circle cx="480.0" cy="800.0" r="2.0" stroke="#0000b2" stroke-width="4.0" fill="#0000b2" />
</g>
<g>
<text text-anchor="end" x="630.0" y="131.0" fill="#000000" style="font-size:24px">A</text>
<text text-anchor="end" x="630.0" y="166.0" fill="#000000" style="font-size:24px">B</text>
<text text-anchor="end" x="630.0" y="201.0" fill="#000000" style="font-size:24px">C</text>
</g>
</g>
</svg>