<?xml version="1.0" encoding="UTF-8" standalone="no"?>
<!-- Created with Inkscape (http://www.inkscape.org/) -->

<svg
   xmlns:dc="http://purl.org/dc/elements/1.1/"
   xmlns:cc="http://creativecommons.org/ns#"
   xmlns:rdf="http://www.w3.org/1999/02/22-rdf-syntax-ns#"
   xmlns:svg="http://www.w3.org/2000/svg"
   xmlns="http://www.w3.org/2000/svg"
   xmlns:sodipodi="http://sodipodi.sourceforge.net/DTD/sodipodi-0.dtd"
   xmlns:inkscape="http://www.inkscape.org/namespaces/inkscape"
   width="365.35507mm"
   height="67.73333mm"
   viewBox="0 0 365.35507 67.73333"
   version="1.1"
   id="svg822"
   sodipodi:docname="dessin.svg"
   inkscape:version="0.92.5 (2060ec1f9f, 2020-04-08)">
  <defs
     id="defs816" />
  <sodipodi:namedview
     id="base"
     pagecolor="#ffffff"
     bordercolor="#666666"
     borderopacity="1.0"
     inkscape:pageopacity="0.0"
     inkscape:pageshadow="2"
     inkscape:zoom="0.98994949"
     inkscape:cx="507.91141"
     inkscape:cy="96.174527"
     inkscape:document-units="mm"
     inkscape:current-layer="layer1"
     showgrid="false"
     fit-margin-top="0"
     fit-margin-left="0"
     fit-margin-right="0"
     fit-margin-bottom="0"
     units="mm"
     inkscape:window-width="1308"
     inkscape:window-height="704"
     inkscape:window-x="58"
     inkscape:window-y="27"
     inkscape:window-maximized="1" />
  <metadata
     id="metadata819">
    <rdf:RDF>
      <cc:Work
         rdf:about="">
        <dc:format>image/svg+xml</dc:format>
        <dc:type
           rdf:resource="http://purl.org/dc/dcmitype/StillImage" />
        <dc:title></dc:title>
      </cc:Work>
    </rdf:RDF>
  </metadata>
  <g
     inkscape:label="Calque 1"
     inkscape:groupmode="layer"
     id="layer1"
     transform="translate(151.04094,-34.002499)">
    <path
       style="fill:#000000;stroke-width:0.26458332"
       d="m -150.77367,59.583814 v -33.86667 h 59.266672 59.266665 v 33.86667 33.866661 h -59.266665 -59.266672 z m 16.84687,21.16666 c 0.0282,-0.21828 0.12978,-0.87312 0.2258,-1.45521 l 0.17457,-1.05833 0.63548,0.79375 c 0.34952,0.43656 0.63608,0.93839 0.6368,1.11517 0.002,0.40009 0.81371,0.83845 1.25808,0.67911 0.4612,-0.16537 0.41321,-1.4265 -0.0812,-2.13228 -0.37278,-0.53222 -0.37278,-0.64386 0,-1.17608 1.08453,-1.54838 0.12423,-3.11861 -1.90322,-3.11208 -0.69123,0.002 -1.4008,0.0956 -1.57683,0.20746 -0.20403,0.12967 -0.38676,1.38376 -0.50406,3.45931 l -0.18401,3.25591 0.63365,-0.0899 c 0.34851,-0.0495 0.65671,-0.26852 0.68489,-0.4868 z m 0.35105,-4.12581 c 0,-0.71575 0.10571,-0.90127 0.51355,-0.90127 0.28245,0 0.58779,0.12013 0.67853,0.26695 0.27325,0.44212 -0.11657,1.25434 -0.67168,1.3995 -0.44227,0.11566 -0.5204,7.7e-4 -0.5204,-0.76518 z m 25.35802,3.72575 c 3.16405,-0.55957 4.45965,-1.19344 4.97351,-2.43328 0.52552,-1.26797 0.47951,-1.23174 1.12518,-0.88619 0.70695,0.37836 2.23608,-0.22371 2.681366,-1.05573 0.30661,-0.57289 0.38976,-0.58241 3.52703,-0.40372 4.596911,0.26183 4.403646,0.22875 4.403646,0.75376 0,0.63903 0.826505,0.89912 3.175,0.99913 4.463235,0.19007 6.403797,-0.26962 8.03833,-1.90415 0.952434,-0.95243 1.142254,-1.03505 2.032426,-0.88466 0.855273,0.1445 1.110869,0.0527 1.982292,-0.71221 l 1.000419,-0.87809 5.367245,0.0244 c 4.110561,0.0187 5.39741,-0.0542 5.496081,-0.31139 0.255129,-0.66486 -0.562055,-0.85309 -4.295497,-0.98944 -2.08688,-0.0762 -3.858348,-0.2026 -3.936593,-0.28084 -0.07825,-0.0782 -0.156736,-1.30768 -0.174421,-2.73206 l -0.03216,-2.58981 -1.360095,-0.66146 c -0.748054,-0.3638 -1.52196,-0.79783 -1.719792,-0.96451 -0.903317,-0.76108 -2.909554,-1.63827 -4.725321,-2.06605 -1.091406,-0.25713 -2.140571,-0.5525 -2.331476,-0.65638 -0.444024,-0.24161 4.842555,-2.75353 7.851828,-3.7308 1.217181,-0.39529 2.316686,-0.8823 2.443342,-1.08225 0.126659,-0.19995 0.232111,-1.5298 0.234339,-2.95522 l 0.004,-2.59168 0.859896,0.13997 c 0.472943,0.077 1.566373,0.26097 2.429844,0.40886 1.934778,0.33138 3.774336,0.34728 3.967773,0.0343 0.371285,-0.60075 -1.145352,-0.99862 -4.743971,-1.24451 -1.018646,-0.0696 -2.127321,-0.26558 -2.463723,-0.4355 -0.469043,-0.23692 -0.730369,-0.2348 -1.120889,0.009 -0.963866,0.60194 -2.212919,0.39388 -2.855844,-0.47572 -0.664363,-0.8986 -1.695373,-1.05545 -2.449811,-0.37269 -0.432506,0.39141 -0.511921,0.34716 -1.127826,-0.6285 -0.83775,-1.32708 -1.841794,-2.1211 -2.907186,-2.29905 -0.458179,-0.0765 -2.648757,-0.17594 -4.86795,-0.22092 l -4.034895,-0.0818 v 0.7472 0.74721 l -3.767294,-0.12731 c -3.706107,-0.12523 -3.770777,-0.13776 -3.981917,-0.77117 -0.11804,-0.35412 -0.574426,-0.7929 -1.014186,-0.97505 -0.67251,-0.27857 -0.9451,-0.26178 -1.7156,0.10565 -1.06531,0.50801 -1.42726,0.54721 -1.42726,0.15459 0,-0.55619 -1.36909,-2.06334 -2.10846,-2.32109 -1.46006,-0.50898 -5.65794,-0.86402 -7.68112,-0.64965 -1.85361,0.19641 -1.9895,0.25386 -2.06212,0.87173 l -0.0778,0.66146 -4.27931,0.0861 c -2.35362,0.0474 -4.37441,0.14488 -4.49063,0.21672 -0.70815,0.43765 0.60453,0.6232 4.40896,0.6232 h 4.31583 l 0.17546,1.55083 c 0.0965,0.85296 0.0967,2.04359 2.6e-4,2.64584 l -0.175,1.095 h -1.39308 c -1.02624,0 -1.43538,0.11021 -1.55369,0.41851 -0.0883,0.23018 -0.1606,2.19069 -0.1606,4.35668 v 3.93815 l -2.84427,0.0751 c -2.31847,0.0612 -2.84427,0.14847 -2.84427,0.47198 0,0.3238 0.52933,0.41076 2.87479,0.47228 l 2.8748,0.0754 -0.16817,2.30584 c -0.0925,1.26822 -0.30014,3.75765 -0.46143,5.53207 -0.16129,1.77443 -0.22215,3.41154 -0.13524,3.63802 0.12227,0.31865 0.57885,0.4118 2.01841,0.4118 h 1.86038 v 2.65794 2.65795 l -2.71198,-0.15239 c -1.49159,-0.0838 -3.37877,-0.21222 -4.19375,-0.28535 -1.16529,-0.10457 -1.55872,-0.0402 -1.84209,0.30119 -0.67695,0.81568 0.26844,1.077 4.52892,1.25189 3.84951,0.15802 4.01412,0.18801 4.51297,0.8222 0.42165,0.53604 0.79843,0.67587 2.03007,0.75339 0.83178,0.0524 1.80998,0.11552 2.17378,0.14036 0.3638,0.0248 1.6546,-0.13049 2.86844,-0.34516 z m -4.85282,-1.14267 -1.05833,-0.17706 -0.0734,-3.92916 -0.0734,-3.92915 3.11608,0.18765 c 3.33162,0.20064 5.6292,0.80577 6.54805,1.72463 0.43235,0.43234 0.53453,0.8823 0.53553,2.35823 0.002,2.23805 -0.56764,3.01374 -2.51833,3.43209 -1.72637,0.37024 -5.18886,0.54815 -6.47626,0.33277 z m 10.38661,-3.87954 c -0.1509,-0.78937 0.3357,-1.26551 1.17165,-1.14647 0.76527,0.10897 0.96292,0.99244 0.32619,1.45803 -0.75015,0.54852 -1.35758,0.42217 -1.49784,-0.31156 z m 12.440153,-2.87261 c -0.06634,-1.91349 -0.06334,-3.58403 0.0067,-3.7123 0.204005,-0.37383 6.149623,-0.0228 7.209147,0.42558 0.516118,0.21843 1.273098,0.79492 1.682179,1.28109 0.652925,0.77595 0.7239,1.02901 0.581006,2.07152 -0.312428,2.27941 -1.893903,3.0576 -6.676855,3.28545 l -2.681523,0.12774 -0.120616,-3.47908 z m -3.909044,1.90035 c -0.654844,-0.13813 -2.072566,-0.19238 -3.150494,-0.12056 -1.854979,0.1236 -1.987999,0.0948 -2.485605,-0.53777 -0.43042,-0.54719 -0.69866,-0.64775 -1.47971,-0.55473 -0.5247,0.0625 -1.15159,0.20103 -1.39311,0.30787 -0.31048,0.13734 -0.48855,0.0385 -0.60786,-0.33742 -0.10395,-0.32753 -1.00202,-0.9464 -2.3391,-1.61188 -2.09572,-1.04308 -2.30038,-1.08946 -5.95113,-1.34865 -2.07943,-0.14763 -3.89509,-0.19777 -4.03481,-0.11143 -0.13971,0.0864 -0.25402,0.44763 -0.25402,0.80284 0,0.59863 -0.0967,0.64585 -1.32292,0.64585 -1.52485,0 -1.46743,0.1916 -0.91186,-3.04271 0.25835,-1.50401 0.46705,-4.98859 0.56652,-9.45885 l 0.15748,-7.07761 h 0.65116 c 0.3724,0 0.86523,0.27214 1.1512,0.63568 0.46652,0.5931 0.67292,0.6359 3.08078,0.6389 5.38464,0.007 7.85846,-0.74025 8.73436,-2.63733 0.37526,-0.81279 0.55939,-0.96428 0.99015,-0.81468 1.15793,0.40212 2.31635,0.17145 2.91606,-0.58066 0.534526,-0.67035 0.743436,-0.73387 2.537383,-0.77153 1.075196,-0.0226 2.749516,0.007 3.720714,0.0656 2.05527,0.12405 2.061345,0.13316 2.067033,3.09953 l 0.0036,1.88441 -0.992187,0.15383 c -0.545703,0.0846 -1.919756,0.23575 -3.053451,0.33587 -2.277443,0.20113 -2.579327,0.4383 -2.55579,2.00794 0.01275,0.85035 0.100079,0.91926 2.844271,2.24455 1.557112,0.752 3.805975,1.74817 4.997474,2.2137 2.120312,0.82844 2.761239,1.36059 2.121566,1.7615 -0.175545,0.11003 -1.450268,0.58233 -2.832716,1.04956 -1.382448,0.46723 -3.287448,1.1331 -4.233333,1.47969 l -1.719792,0.63017 0.0716,1.95899 c 0.03938,1.07745 0.194108,2.08156 0.343839,2.23135 0.14973,0.1498 1.226256,0.2897 2.392275,0.31089 1.166021,0.0212 2.201918,0.12034 2.301994,0.22033 0.100076,0.1 0.223941,1.18399 0.275254,2.40887 l 0.09329,2.22706 -0.754753,-0.029 c -0.415116,-0.016 -1.290537,-0.142 -1.945381,-0.28013 z m 15.411978,-1.18903 c -0.451686,-0.18226 -0.417819,-1.2752 0.05158,-1.66477 0.210269,-0.17451 0.656754,-0.27838 0.992187,-0.23083 0.848119,0.12023 0.94891,1.10227 0.169183,1.64841 -0.637765,0.44671 -0.691412,0.45764 -1.212954,0.24719 z m 3.108855,-2.27734 c -0.540052,-1.16156 -1.622571,-1.52528 -2.699724,-0.90708 -0.766958,0.44017 -0.821301,0.43982 -1.160706,-0.008 -0.195839,-0.25812 -0.35986,-0.55358 -0.36449,-0.65659 -0.0046,-0.103 -0.514429,-0.47905 -1.132893,-0.83565 -1.747136,-1.00739 -3.7881,-1.30727 -7.414268,-1.0894 -2.807813,0.16871 -3.183839,0.24796 -3.300944,0.69576 -0.09488,0.36284 -0.278722,0.45886 -0.651801,0.34045 -0.285803,-0.0907 -1.111266,-0.16035 -1.834359,-0.15475 l -1.314717,0.0102 0.08122,-0.95711 0.08122,-0.95712 3.836458,-1.35775 c 2.110052,-0.74677 4.242313,-1.57229 4.738357,-1.8345 1.04604,-0.55292 2.595274,-0.4413 4.853201,0.34968 0.763757,0.26755 2.08229,0.70255 2.93007,0.96667 0.847781,0.26411 2.14915,0.87174 2.89193,1.35029 0.742778,0.47855 1.436346,0.90262 1.541259,0.94239 0.104915,0.0398 0.232296,1.1737 0.283072,2.51984 0.08688,2.30347 0.06117,2.44719 -0.436848,2.44167 -0.33469,-0.004 -0.675023,-0.31957 -0.926041,-0.85947 z m -11.54511,-11.00919 c -1.144513,-0.54603 -3.774702,-1.63981 -5.844865,-2.43061 -2.070163,-0.79081 -3.727683,-1.5552 -3.683376,-1.69865 0.08184,-0.26497 1.066636,-0.47412 3.515778,-0.74667 1.231744,-0.13707 1.348026,-0.10505 1.231837,0.33926 -0.234069,0.89509 0.721603,1.09114 4.750167,0.97448 5.21661,-0.15106 6.310434,-0.48512 7.673734,-2.34356 0.18831,-0.2567 0.822635,-0.50365 1.477598,-0.57526 1.172974,-0.12823 2.159653,-0.76427 2.159653,-1.39215 0,-0.40528 1.133573,-0.75477 1.719199,-0.53004 0.296334,0.11371 0.397468,0.58381 0.397468,1.84754 0,0.93227 -0.06908,2.04044 -0.153517,2.46261 -0.1652,0.826 -0.203112,0.84484 -5.799608,2.88255 -1.309687,0.47686 -3.052175,1.16767 -3.872193,1.53515 l -1.490945,0.66812 z m -3.53614,-8.66136 v -3.80605 h 4.06536 c 4.648943,0 4.955778,0.11501 5.986288,2.24376 0.548843,1.13376 0.555617,1.24267 0.161544,2.59823 -0.226225,0.77818 -0.642832,1.62439 -0.925799,1.88048 -0.637479,0.57691 -3.399417,0.94902 -6.790049,0.91481 l -2.497344,-0.0252 z m 11.90625,0.55599 c 0,-0.33376 0.166954,-0.72446 0.721209,-1.68776 0.03286,-0.0571 0.241223,0.0468 0.463021,0.23083 0.527441,0.43774 0.517966,1.49218 -0.01524,1.6968 -0.710843,0.27277 -1.16899,0.17876 -1.16899,-0.23987 z m -35.614242,-3.63586 -0.0278,-3.83506 1.48298,-0.15804 c 1.75904,-0.18746 5.9571,0.28324 6.93741,0.77784 1.32217,0.66709 1.84984,2.6146 1.27213,4.69511 -0.43823,1.57819 -1.84513,2.08586 -6.19739,2.23631 l -3.43958,0.1189 z m 11.73559,0.41436 c -1.11626,-0.29171 -0.0252,-1.93429 1.28478,-1.93429 0.72447,0 0.96876,0.83962 0.45691,1.57039 -0.37115,0.52988 -0.77981,0.61526 -1.74169,0.3639 z m 50.866151,27.43446 c 0,-0.29104 -0.100867,-0.52916 -0.224152,-0.52916 -0.538936,0 -0.727996,-1.16054 -0.367464,-2.25567 0.449434,-1.36518 0.115324,-2.91011 -0.819216,-3.78806 -0.342668,-0.32192 -1.367999,-0.77437 -2.278518,-1.00544 -1.369412,-0.34753 -1.764742,-0.36166 -2.287717,-0.0818 -1.552485,0.83087 -2.287606,4.71978 -1.162545,6.15006 0.731774,0.9303 2.139469,1.34625 3.868423,1.14304 1.218268,-0.14318 1.484931,-0.0913 1.875337,0.36463 0.595752,0.69579 1.395852,0.69715 1.395852,0.002 z m -5.615744,-1.73535 c -0.92737,-0.50326 -1.263423,-1.15266 -1.263423,-2.44146 0,-1.20741 0.94379,-2.79611 1.728883,-2.91026 0.286041,-0.0416 1.073962,0.27582 1.750936,0.70535 1.289306,0.81804 1.769702,1.82448 1.410726,2.95552 -0.161419,0.50859 -0.213992,0.52002 -0.635862,0.13823 -0.98996,-0.8959 -1.71694,-0.18553 -0.804304,0.78592 l 0.595402,0.63378 -0.717198,0.27268 c -0.925711,0.35195 -1.192332,0.33391 -2.06516,-0.13976 z m 6.806369,-5.95961 c 0,-1.25677 -0.06513,-1.43316 -0.529167,-1.43316 -0.635492,0 -0.844481,1.20395 -0.408188,2.35149 0.447638,1.17738 0.937355,0.6976 0.937355,-0.91833 z m -81.783276,-6.14731 c 0.24034,-0.39628 0.16369,-0.58409 -0.436,-1.06827 -0.69913,-0.56447 -0.94547,-0.99885 -0.52917,-0.93312 0.85032,0.13426 1.38907,-0.0831 1.38907,-0.5605 0,-0.39208 -0.17639,-0.52917 -0.68086,-0.52917 -0.50603,0 -0.65796,-0.11889 -0.59166,-0.46302 0.0707,-0.36714 0.3624,-0.46302 1.40846,-0.46302 1.13447,0 1.31926,-0.0727 1.31926,-0.51924 0,-0.38221 -0.2627,-0.58137 -0.99545,-0.75466 -0.54749,-0.12948 -1.20234,-0.14481 -1.4552,-0.0341 -0.25287,0.11074 -0.56159,0.17827 -0.68605,0.15006 -0.50838,-0.11522 -0.89835,0.58713 -1.36379,2.45625 -0.42251,1.69672 -0.43934,2.03275 -0.12099,2.41634 0.80282,0.96733 2.24282,1.12613 2.74238,0.30242 z m 79.534318,-7.92718 c 0,-0.30039 -0.183701,-0.74916 -0.408223,-0.99725 -0.368374,-0.40705 -0.36489,-0.54195 0.03569,-1.38198 0.287584,-0.60307 0.379421,-1.18786 0.260779,-1.66057 -0.220459,-0.87837 -1.606161,-2.23658 -2.281862,-2.23658 -0.267062,0 -0.559155,-0.11906 -0.649092,-0.26458 -0.216045,-0.34957 -1.353619,-0.33757 -2.024263,0.0213 -0.703707,0.37661 -1.534501,2.24322 -1.541801,3.46408 -0.01045,1.75022 2.137772,3.44539 3.828483,3.02105 0.347158,-0.0871 0.710203,-0.0306 0.806773,0.12568 0.237133,0.38368 1.234287,0.73623 1.642787,0.58081 0.181901,-0.0692 0.33073,-0.37161 0.33073,-0.67201 z m -4.667576,-2.18865 c -0.733372,-0.73337 -0.711827,-1.45197 0.07975,-2.66008 0.442282,-0.675 1.412822,-0.86951 1.412822,-0.28314 0,0.19291 0.297656,0.63038 0.661458,0.97216 0.363802,0.34177 0.661458,0.78219 0.661458,0.97871 0,0.19652 -0.297656,0.47047 -0.661458,0.60879 -0.363802,0.13832 -0.661458,0.43302 -0.661458,0.65491 0,0.61591 -0.739812,0.48141 -1.492576,-0.27135 z m -73.817072,-3.84235 c 0.54773,-0.43084 0.69714,-0.7776 0.69714,-1.61796 0,-0.88481 -0.16027,-1.2164 -0.92774,-1.91937 -0.99722,-0.91342 -0.99176,-1.34589 0.0112,-0.8889 0.79519,0.36231 1.44568,0.10852 1.44568,-0.56404 0,-1.11197 -2.48013,-1.50623 -3.43958,-0.54678 -0.84307,0.84307 -0.68619,1.9341 0.39687,2.76019 0.50932,0.38848 0.92604,0.81899 0.92604,0.95669 0,0.37788 -1.67924,1.01394 -1.97114,0.74663 -0.13825,-0.12659 -0.5252,-0.23017 -0.8599,-0.23017 -0.97067,0 -0.79797,1.00154 0.25136,1.45762 1.26092,0.54805 2.65633,0.48616 3.47004,-0.15391 z"
       id="path3625"
       inkscape:connector-curvature="0" />
    <path
       style="fill:#000000;stroke-width:0.26458332"
       d="M 96.048077,59.583811 V 25.717144 h 59.266663 59.26667 V 59.583811 93.450475 H 155.31474 96.048077 Z m 16.846863,21.166664 c 0.0282,-0.218282 0.12978,-0.873125 0.2258,-1.455209 l 0.17457,-1.058333 0.63548,0.79375 c 0.34952,0.436563 0.63608,0.93839 0.6368,1.115171 0.002,0.40009 0.81371,0.838446 1.25808,0.679111 0.4612,-0.165369 0.41321,-1.426501 -0.0812,-2.132285 -0.37278,-0.532222 -0.37278,-0.643855 0,-1.176078 1.08453,-1.548376 0.12423,-3.118612 -1.90322,-3.112077 -0.69123,0.0021 -1.4008,0.09558 -1.57683,0.207458 -0.20403,0.129664 -0.38676,1.383762 -0.50406,3.459313 l -0.18401,3.255907 0.63365,-0.08993 c 0.34851,-0.04946 0.65671,-0.268521 0.68489,-0.486802 z m 0.35105,-4.125812 c 0,-0.715748 0.10571,-0.901272 0.51355,-0.901272 0.28245,0 0.58779,0.120129 0.67853,0.266952 0.27325,0.442118 -0.11657,1.254339 -0.67168,1.399503 -0.44227,0.115654 -0.5204,7.93e-4 -0.5204,-0.765183 z m 25.35802,3.725748 c 3.16405,-0.559569 4.45965,-1.193442 4.97351,-2.433283 0.52552,-1.267968 0.47951,-1.231733 1.12518,-0.886182 0.70695,0.378352 2.23608,-0.223713 2.68136,-1.055732 0.30661,-0.572895 0.38977,-0.582412 3.52703,-0.403723 4.59692,0.261829 4.40365,0.228749 4.40365,0.753761 0,0.63903 0.8265,0.899121 3.175,0.999133 4.46324,0.190069 6.4038,-0.269621 8.03833,-1.904151 0.95244,-0.952436 1.14226,-1.035058 2.03243,-0.884666 0.85527,0.1445 1.11087,0.05267 1.98229,-0.712208 l 1.00042,-0.878094 5.36724,0.02437 c 4.11057,0.01865 5.39742,-0.05425 5.49609,-0.311385 0.25512,-0.664858 -0.56206,-0.853093 -4.2955,-0.989444 -2.08688,-0.07622 -3.85835,-0.202594 -3.9366,-0.280839 -0.0782,-0.07824 -0.15673,-1.307674 -0.17442,-2.732061 l -0.0322,-2.589803 -1.36009,-0.661458 c -0.74806,-0.363802 -1.52196,-0.797835 -1.71979,-0.964517 -0.90332,-0.76108 -2.90956,-1.638266 -4.72532,-2.06605 -1.09141,-0.257127 -2.14058,-0.552497 -2.33148,-0.656378 -0.44403,-0.241612 4.84255,-2.753532 7.85183,-3.7308 1.21718,-0.395284 2.31668,-0.882295 2.44334,-1.082246 0.12666,-0.199954 0.23211,-1.529805 0.23434,-2.955226 l 0.004,-2.591677 0.85989,0.13997 c 0.47295,0.07698 1.56638,0.260972 2.42985,0.408864 1.93478,0.33138 3.77434,0.347279 3.96777,0.03429 0.37129,-0.60075 -1.14535,-0.998618 -4.74397,-1.244513 -1.01865,-0.0696 -2.12732,-0.265579 -2.46372,-0.435499 -0.46905,-0.236918 -0.73037,-0.2348 -1.12089,0.0091 -0.96387,0.601944 -2.21292,0.393881 -2.85585,-0.47572 -0.66436,-0.898598 -1.69537,-1.055447 -2.44981,-0.372689 -0.4325,0.391413 -0.51192,0.347158 -1.12782,-0.628498 -0.83775,-1.327086 -1.8418,-2.121099 -2.90719,-2.299049 -0.45818,-0.07653 -2.64876,-0.175944 -4.86795,-0.220923 l -4.0349,-0.08178 v 0.747203 0.747201 l -3.76729,-0.127303 c -3.70611,-0.125235 -3.77078,-0.137761 -3.98192,-0.771169 -0.11805,-0.354128 -0.57443,-0.792902 -1.01418,-0.975055 -0.67251,-0.278565 -0.94511,-0.26178 -1.7156,0.105647 -1.0653,0.508012 -1.42726,0.547218 -1.42726,0.154595 0,-0.556187 -1.36909,-2.063344 -2.10845,-2.32109 -1.46006,-0.50898 -5.65794,-0.864024 -7.68113,-0.649646 -1.85361,0.19641 -1.98951,0.253855 -2.06213,0.871723 l -0.0778,0.661458 -4.27931,0.08612 c -2.35363,0.04736 -4.37442,0.144888 -4.49063,0.21672 -0.70816,0.437658 0.60452,0.623205 4.40895,0.623205 h 4.31584 l 0.17546,1.550833 c 0.0965,0.852959 0.0967,2.043584 2.6e-4,2.645835 l -0.17501,1.094999 h -1.39307 c -1.02625,0 -1.43538,0.110209 -1.5537,0.418515 -0.0883,0.230183 -0.1606,2.190688 -0.1606,4.356676 v 3.938158 l -2.84427,0.0751 c -2.31847,0.06121 -2.84426,0.148463 -2.84426,0.471971 0,0.3238 0.52932,0.410761 2.87478,0.472282 l 2.87479,0.07541 -0.16816,2.305843 c -0.0925,1.268214 -0.30015,3.757647 -0.46143,5.532073 -0.16129,1.774425 -0.22214,3.411535 -0.13524,3.638021 0.12227,0.318643 0.57885,0.411792 2.0184,0.411792 h 1.86039 v 2.657946 2.657948 l -2.71197,-0.152386 c -1.4916,-0.08381 -3.37878,-0.212225 -4.19376,-0.285359 -1.16528,-0.104568 -1.55871,-0.04024 -1.84208,0.301197 -0.67695,0.815676 0.26843,1.077002 4.52891,1.251891 3.84951,0.15802 4.01413,0.188011 4.51298,0.822198 0.42164,0.536036 0.79842,0.675865 2.03006,0.753394 0.83179,0.05236 1.80998,0.115517 2.17378,0.14035 0.36381,0.02484 1.65461,-0.130487 2.86844,-0.345159 z m -4.85282,-1.142669 -1.05833,-0.177059 -0.0734,-3.929158 -0.0734,-3.929152 3.11608,0.18765 c 3.33162,0.200636 5.6292,0.805773 6.54805,1.724628 0.43235,0.432343 0.53453,0.882301 0.53553,2.358232 0.002,2.238047 -0.56764,3.013739 -2.51833,3.432085 -1.72637,0.370242 -5.18886,0.548156 -6.47626,0.332774 z m 10.38661,-3.879546 c -0.1509,-0.78936 0.3357,-1.265502 1.17165,-1.146468 0.76527,0.108968 0.96292,0.992441 0.32619,1.458029 -0.75015,0.548528 -1.35758,0.422179 -1.49784,-0.311561 z m 12.44015,-2.872602 c -0.0663,-1.913493 -0.0633,-3.584027 0.007,-3.712305 0.20401,-0.373827 6.14963,-0.02283 7.20915,0.425585 0.51612,0.218432 1.2731,0.794919 1.68218,1.281086 0.65292,0.775954 0.7239,1.029007 0.581,2.071521 -0.31242,2.279414 -1.8939,3.057604 -6.67685,3.285453 l -2.68152,0.12774 -0.12062,-3.47908 z m -3.90904,1.900346 c -0.65485,-0.138128 -2.07257,-0.192379 -3.1505,-0.120557 -1.85497,0.123594 -1.988,0.09482 -2.4856,-0.537769 -0.43042,-0.547195 -0.69866,-0.647755 -1.47971,-0.554733 -0.5247,0.06249 -1.15159,0.20103 -1.39311,0.307867 -0.31048,0.137347 -0.48855,0.03851 -0.60786,-0.337413 -0.10395,-0.327536 -1.00202,-0.946401 -2.3391,-1.611887 -2.09572,-1.04308 -2.30038,-1.089461 -5.95113,-1.34865 -2.07943,-0.147629 -3.89509,-0.19777 -4.03481,-0.111424 -0.13971,0.08635 -0.25402,0.447628 -0.25402,0.802841 0,0.598623 -0.0967,0.645843 -1.32292,0.645843 -1.52485,0 -1.46743,0.191601 -0.91186,-3.042708 0.25835,-1.504014 0.46705,-4.988589 0.56652,-9.458852 l 0.15748,-7.077605 h 0.65116 c 0.3724,0 0.86523,0.272138 1.1512,0.635681 0.46652,0.593095 0.67292,0.6359 3.08078,0.638903 5.38464,0.0067 7.85846,-0.740252 8.73436,-2.63734 0.37526,-0.812784 0.55939,-0.964275 0.99015,-0.814679 1.15793,0.402122 2.31635,0.171452 2.91606,-0.580659 0.53452,-0.670346 0.74344,-0.73387 2.53738,-0.771527 1.0752,-0.02257 2.74952,0.0069 3.72072,0.06555 2.05527,0.124054 2.06134,0.133163 2.06703,3.099529 l 0.004,1.884413 -0.99219,0.153829 c -0.5457,0.0846 -1.91976,0.235746 -3.05345,0.335867 -2.27745,0.201131 -2.57933,0.438303 -2.55579,2.007939 0.0128,0.850355 0.10008,0.919268 2.84427,2.244558 1.55711,0.751999 3.80597,1.748166 4.99747,2.2137 2.12032,0.82844 2.76124,1.360588 2.12157,1.761501 -0.17555,0.110021 -1.45027,0.582321 -2.83272,1.049554 -1.38244,0.467236 -3.28744,1.133097 -4.23333,1.47969 l -1.71979,0.630174 0.0716,1.958989 c 0.0394,1.077446 0.1941,2.081553 0.34383,2.231347 0.14973,0.149799 1.22626,0.289698 2.39228,0.310888 1.16602,0.02119 2.20192,0.120343 2.30199,0.220337 0.10008,0.09999 0.22395,1.183982 0.27526,2.408862 l 0.0933,2.227062 -0.75476,-0.02899 c -0.41511,-0.01595 -1.29053,-0.142002 -1.94538,-0.280127 z m 15.41197,-1.189027 c -0.45168,-0.182258 -0.41781,-1.275199 0.0516,-1.664769 0.21027,-0.174508 0.65676,-0.278384 0.99219,-0.23083 0.84812,0.120226 0.94891,1.102264 0.16918,1.648407 -0.63776,0.446706 -0.69141,0.457639 -1.21295,0.247192 z m 3.10886,-2.277337 c -0.54005,-1.161566 -1.62257,-1.525284 -2.69972,-0.907085 -0.76696,0.440174 -0.8213,0.439822 -1.16071,-0.0075 -0.19584,-0.258117 -0.35986,-0.55358 -0.36449,-0.656588 -0.005,-0.103005 -0.51443,-0.479049 -1.13289,-0.835652 -1.74714,-1.007388 -3.7881,-1.307272 -7.41427,-1.089398 -2.80781,0.168704 -3.18384,0.247962 -3.30094,0.695762 -0.0949,0.362831 -0.27873,0.458853 -0.6518,0.340442 -0.28581,-0.09071 -1.11127,-0.160346 -1.83437,-0.154745 l -1.31471,0.01019 0.0812,-0.957114 0.0812,-0.957115 3.83646,-1.357757 c 2.11005,-0.746768 4.24231,-1.572289 4.73835,-1.834494 1.04605,-0.552923 2.59528,-0.441301 4.85321,0.349676 0.76375,0.267552 2.08229,0.702551 2.93007,0.966669 0.84778,0.264115 2.14915,0.871746 2.89193,1.350293 0.74277,0.478547 1.43634,0.902623 1.54126,0.942393 0.10491,0.03977 0.23229,1.173697 0.28307,2.519836 0.0869,2.303468 0.0612,2.447187 -0.43685,2.44167 -0.33469,-0.0037 -0.67502,-0.319574 -0.92604,-0.859472 z M 159.64463,59.880379 c -1.14451,-0.546031 -3.7747,-1.639802 -5.84486,-2.430613 -2.07017,-0.790808 -3.72769,-1.555197 -3.68338,-1.698641 0.0818,-0.264972 1.06664,-0.47412 3.51578,-0.74667 1.23174,-0.137072 1.34802,-0.10505 1.23183,0.33926 -0.23406,0.895082 0.72161,1.091139 4.75017,0.974479 5.21661,-0.151067 6.31043,-0.485122 7.67373,-2.343558 0.18832,-0.256704 0.82264,-0.503658 1.4776,-0.575265 1.17298,-0.128233 2.15966,-0.764265 2.15966,-1.392153 0,-0.405278 1.13357,-0.754765 1.71919,-0.530039 0.29634,0.113714 0.39747,0.583813 0.39747,1.847545 0,0.932262 -0.0691,2.040435 -0.15351,2.46261 -0.1652,0.826 -0.20311,0.844843 -5.79961,2.882542 -1.30969,0.476864 -3.05218,1.167681 -3.87219,1.535153 l -1.49095,0.668125 z m -3.53614,-8.66136 v -3.806043 h 4.06536 c 4.64894,0 4.95578,0.115007 5.98629,2.243757 0.54884,1.133761 0.55562,1.242671 0.16154,2.598233 -0.22622,0.778179 -0.64283,1.624391 -0.9258,1.880473 -0.63748,0.576911 -3.39941,0.949024 -6.79004,0.914818 l -2.49735,-0.02519 z m 11.90625,0.555992 c 0,-0.333757 0.16695,-0.72446 0.72121,-1.687759 0.0329,-0.05712 0.24122,0.04676 0.46302,0.230834 0.52744,0.437737 0.51797,1.492178 -0.0152,1.696791 -0.71084,0.272773 -1.16899,0.178769 -1.16899,-0.239866 z m -35.61424,-3.63586 -0.0278,-3.835064 1.48298,-0.158038 c 1.75904,-0.187459 5.9571,0.283243 6.93741,0.777847 1.32217,0.667084 1.84984,2.614592 1.27213,4.695107 -0.43823,1.578186 -1.84513,2.085861 -6.19739,2.236311 l -3.43958,0.118901 z m 11.73559,0.414358 c -1.11626,-0.29171 -0.0252,-1.934283 1.28478,-1.934283 0.72447,0 0.96876,0.839613 0.45691,1.570384 -0.37115,0.529881 -0.77981,0.615265 -1.74169,0.363899 z m 50.86615,27.434466 c 0,-0.291042 -0.10087,-0.529167 -0.22415,-0.529167 -0.53894,0 -0.728,-1.160537 -0.36746,-2.255668 0.44943,-1.365179 0.11532,-2.910105 -0.81922,-3.788058 -0.34267,-0.321921 -1.368,-0.774364 -2.27852,-1.005438 -1.36941,-0.34753 -1.76474,-0.361662 -2.28772,-0.08177 -1.55248,0.830866 -2.2876,4.719778 -1.16254,6.15006 0.73177,0.930302 2.13947,1.346248 3.86842,1.143042 1.21827,-0.143184 1.48493,-0.09134 1.87534,0.364625 0.59575,0.695788 1.39585,0.697148 1.39585,0.0024 z m -5.61574,-1.735349 c -0.92737,-0.503267 -1.26343,-1.15266 -1.26343,-2.441464 0,-1.207416 0.94379,-2.796114 1.72889,-2.910258 0.28604,-0.04159 1.07396,0.275817 1.75093,0.705344 1.28931,0.818042 1.76971,1.824488 1.41073,2.955521 -0.16142,0.508592 -0.21399,0.520022 -0.63586,0.138237 -0.98996,-0.895903 -1.71694,-0.18554 -0.8043,0.785918 l 0.5954,0.633777 -0.7172,0.272677 c -0.92571,0.351957 -1.19233,0.333913 -2.06516,-0.139752 z m 6.80637,-5.959616 c 0,-1.256771 -0.0651,-1.43316 -0.52917,-1.43316 -0.63549,0 -0.84448,1.203954 -0.40819,2.351495 0.44764,1.177377 0.93736,0.697597 0.93736,-0.918335 z m -81.78328,-6.147308 c 0.24034,-0.396285 0.16369,-0.584094 -0.436,-1.068273 -0.69913,-0.564463 -0.94547,-0.998853 -0.52917,-0.93312 0.85032,0.13426 1.38907,-0.08313 1.38907,-0.560498 0,-0.392076 -0.17639,-0.52917 -0.68086,-0.52917 -0.50603,0 -0.65796,-0.118893 -0.59166,-0.463018 0.0707,-0.367141 0.3624,-0.463021 1.40846,-0.463021 1.13447,0 1.31926,-0.07273 1.31926,-0.519242 0,-0.382212 -0.2627,-0.581369 -0.99545,-0.754658 -0.54749,-0.129481 -1.20234,-0.144811 -1.4552,-0.03407 -0.25287,0.110744 -0.56159,0.178274 -0.68605,0.150064 -0.50838,-0.115224 -0.89835,0.587129 -1.36379,2.456248 -0.42251,1.696715 -0.43934,2.032749 -0.12099,2.41634 0.80282,0.967329 2.24282,1.126127 2.74238,0.302418 z m 79.53432,-7.927181 c 0,-0.300392 -0.1837,-0.749154 -0.40822,-0.997249 -0.36838,-0.407051 -0.36489,-0.541954 0.0357,-1.381978 0.28758,-0.603068 0.37942,-1.18786 0.26078,-1.660568 -0.22046,-0.878376 -1.60616,-2.236583 -2.28187,-2.236583 -0.26706,0 -0.55915,-0.119063 -0.64909,-0.264583 -0.21604,-0.349568 -1.35362,-0.337571 -2.02426,0.02135 -0.70371,0.376614 -1.5345,2.24322 -1.5418,3.464083 -0.0105,1.75022 2.13777,3.44539 3.82848,3.021049 0.34716,-0.08713 0.7102,-0.03057 0.80677,0.125677 0.23714,0.383688 1.23429,0.736234 1.64279,0.580813 0.1819,-0.06921 0.33073,-0.37161 0.33073,-0.672005 z m -4.66758,-2.188651 c -0.73337,-0.733372 -0.71182,-1.451971 0.0798,-2.660077 0.44229,-0.675006 1.41282,-0.869513 1.41282,-0.283146 0,0.192915 0.29766,0.630388 0.66146,0.972162 0.3638,0.341775 0.66146,0.782195 0.66146,0.978711 0,0.196517 -0.29766,0.470472 -0.66146,0.608789 -0.3638,0.138318 -0.66146,0.433027 -0.66146,0.654912 0,0.615913 -0.73981,0.481414 -1.49257,-0.271351 z m -73.81707,-3.842347 c 0.54773,-0.430845 0.69714,-0.777602 0.69714,-1.617962 0,-0.884809 -0.16027,-1.216398 -0.92774,-1.919371 -0.99722,-0.913419 -0.99176,-1.345889 0.0112,-0.888899 0.79519,0.362314 1.44568,0.108523 1.44568,-0.564035 0,-1.111975 -2.48013,-1.506233 -3.43958,-0.54678 -0.84307,0.843062 -0.68619,1.934096 0.39687,2.760187 0.50932,0.38848 0.92604,0.818988 0.92604,0.956686 0,0.37788 -1.67924,1.013947 -1.97114,0.746636 -0.13825,-0.126596 -0.5252,-0.230175 -0.8599,-0.230175 -0.97067,0 -0.79797,1.001546 0.25136,1.457624 1.26092,0.548051 2.65633,0.486159 3.47004,-0.153911 z"
       id="path3625-3"
       inkscape:connector-curvature="0" />
    <rect
       style="color:#000000;display:inline;overflow:visible;visibility:visible;opacity:1;vector-effect:none;fill:#000000;fill-opacity:1;stroke:none;stroke-width:0.79375327;stroke-linecap:butt;stroke-linejoin:miter;stroke-miterlimit:4;stroke-dasharray:none;stroke-dashoffset:0;stroke-opacity:1;marker:none;enable-background:accumulate"
       id="rect7345"
       width="128.28763"
       height="67.732552"
       x="-32.239555"
       y="25.717922"
       ry="0.059969772" />
  </g>
</svg>
