<?xml version="1.0" encoding="UTF-8" standalone="no"?>
<!-- Created with Digital by H.Neemann -->
<!-- created: Wed Jan 26 17:10:13 EST 2022 -->

<svg
   xmlns:svg="http://www.w3.org/2000/svg"
   xmlns="http://www.w3.org/2000/svg"
   width="131.55mm"
   height="135.3mm"
   viewBox="-104 -192 877 902">
<g stroke-linecap="square">
<circle cx="0.0" cy="120.0" r="70.0" stroke="#000000" stroke-width="4.0" fill="none" />
<circle cx="-91.92388" cy="28.076118" r="10.0" stroke="#000000" stroke-width="4.0" fill="#000000" />
<path d="M -82.02438,37.975613 Q -67.17514,52.82486 -52.3259,67.6741" stroke="#808080" stroke-width="2.0" fill="none"/>
<path d="M -70.71068,57.77461 L -50.911686,69.08832 L -62.22539,49.289326" stroke="#808080" stroke-width="2.0" fill="none"/>
<text text-anchor="middle" x="0.0" y="105.0" fill="#000000" style="font-size:24px">0</text>
<text text-anchor="middle" x="0.0" y="129.0" fill="#000000" style="font-size:24px">a</text>
<circle cx="360.0" cy="-120.0" r="70.0" stroke="#000000" stroke-width="4.0" fill="none" />
<text text-anchor="middle" x="360.0" y="-135.0" fill="#000000" style="font-size:24px">1</text>
<text text-anchor="middle" x="360.0" y="-111.0" fill="#000000" style="font-size:24px">b</text>
<circle cx="360.0" cy="240.0" r="70.0" stroke="#000000" stroke-width="4.0" fill="none" />
<text text-anchor="middle" x="360.0" y="225.0" fill="#000000" style="font-size:24px">2</text>
<text text-anchor="middle" x="360.0" y="249.0" fill="#000000" style="font-size:24px">c</text>
<circle cx="660.0" cy="180.0" r="70.0" stroke="#000000" stroke-width="4.0" fill="none" />
<text text-anchor="middle" x="660.0" y="165.0" fill="#000000" style="font-size:24px">3</text>
<text text-anchor="middle" x="660.0" y="189.0" fill="#000000" style="font-size:24px">d</text>
<circle cx="120.0" cy="540.0" r="70.0" stroke="#000000" stroke-width="4.0" fill="none" />
<text text-anchor="middle" x="120.0" y="525.0" fill="#000000" style="font-size:24px">4</text>
<text text-anchor="middle" x="120.0" y="549.0" fill="#000000" style="font-size:24px">e</text>
<circle cx="540.0" cy="540.0" r="70.0" stroke="#000000" stroke-width="4.0" fill="none" />
<text text-anchor="middle" x="540.0" y="525.0" fill="#000000" style="font-size:24px">5</text>
<text text-anchor="middle" x="540.0" y="549.0" fill="#000000" style="font-size:24px">f</text>
<path d="M 9.836796,46.656715 Q 55.842804,-187.42633 286.5831,-139.64583" stroke="#808080" stroke-width="2.0" fill="none"/>
<path d="M 265.78195,-137.82594 L 288.54156,-139.24028 L 268.21524,-149.57664" stroke="#808080" stroke-width="2.0" fill="none"/>
<text text-anchor="middle" x="102.026375" y="-119.960434" fill="#000000" style="font-size:24px"><tspan style="font-style:italic;">x=0</tspan></text>
<text text-anchor="middle" x="102.026375" y="-95.960434" fill="#000000" style="font-size:24px">mettre <tspan style="font-style:italic;">S=1</tspan></text>
<path d="M 342.13785,-48.188133 Q 326.93515,60.97043 341.6551,166.24728" stroke="#808080" stroke-width="2.0" fill="none"/>
<path d="M 332.94342,147.2708 L 341.93204,168.22801 L 344.82782,145.60912" stroke="#808080" stroke-width="2.0" fill="none"/>
<text text-anchor="middle" x="334.4158" y="57.0" fill="#000000" style="font-size:24px"><tspan style="font-style:italic;">x=1</tspan></text>
<text text-anchor="middle" x="334.4158" y="81.0" fill="#000000" style="font-size:24px">mettre <tspan style="font-style:italic;">S=1</tspan></text>
<path d="M 433.9099,-116.34945 Q 630.21094,-89.16281 656.2508,104.09253" stroke="#808080" stroke-width="2.0" fill="none"/>
<path d="M 647.6338,85.07287 L 656.5179,106.074615 L 659.52637,83.470436" stroke="#808080" stroke-width="2.0" fill="none"/>
<text text-anchor="middle" x="587.6456" y="-50.645634" fill="#000000" style="font-size:24px"><tspan style="font-style:italic;">x=0</tspan></text>
<text text-anchor="middle" x="587.6456" y="-26.645634" fill="#000000" style="font-size:24px">mettre <tspan style="font-style:italic;">S=0</tspan></text>
<path d="M 310.55542,295.05664 Q 232.93011,385.62262 164.0185,478.0454" stroke="#808080" stroke-width="2.0" fill="none"/>
<path d="M 171.16331,458.42523 L 162.823,479.64877 L 180.78352,465.5982" stroke="#808080" stroke-width="2.0" fill="none"/>
<text text-anchor="middle" x="235.10854" y="383.08682" fill="#000000" style="font-size:24px"><tspan style="font-style:italic;">x=1</tspan></text>
<text text-anchor="middle" x="235.10854" y="407.08682" fill="#000000" style="font-size:24px">mettre <tspan style="font-style:italic;">S=0</tspan></text>
<path d="M 66.60753,488.76288 Q -43.802746,358.75937 -18.7582,193.64868" stroke="#808080" stroke-width="2.0" fill="none"/>
<path d="M -15.825413,214.32231 L -18.458263,191.6713 L -27.689705,212.52269" stroke="#808080" stroke-width="2.0" fill="none"/>
<text text-anchor="middle" x="-9.939041" y="346.98257" fill="#000000" style="font-size:24px"><tspan style="font-style:italic;">x=1</tspan></text>
<text text-anchor="middle" x="-9.939041" y="370.98257" fill="#000000" style="font-size:24px">mettre <tspan style="font-style:italic;">S=1</tspan></text>
<path d="M 605.7793,506.1018 Q 751.29065,409.67584 693.15704,248.38574" stroke="#808080" stroke-width="2.0" fill="none"/>
<path d="M 705.5831,265.16647 L 692.4789,246.50423 L 694.29407,269.23538" stroke="#808080" stroke-width="2.0" fill="none"/>
<text text-anchor="middle" x="700.3794" y="390.4598" fill="#000000" style="font-size:24px"><tspan style="font-style:italic;">x=0</tspan></text>
<text text-anchor="middle" x="700.3794" y="414.4598" fill="#000000" style="font-size:24px">mettre <tspan style="font-style:italic;">S=0</tspan></text>
<path d="M 477.50952,579.6351 Q 329.15552,652.05115 184.17943,580.7063" stroke="#808080" stroke-width="2.0" fill="none"/>
<path d="M 204.77347,584.15375 L 182.38495,579.8232 L 199.47495,594.9206" stroke="#808080" stroke-width="2.0" fill="none"/>
<text text-anchor="middle" x="330.0" y="637.1109" fill="#000000" style="font-size:24px"><tspan style="font-style:italic;">x=1</tspan></text>
<text text-anchor="middle" x="330.0" y="661.1109" fill="#000000" style="font-size:24px">mettre <tspan style="font-style:italic;">S=0</tspan></text>
<path d="M 104.99489,612.4627 C 79.25314,736.7748 -66.7833,627.77747 51.216675,572.3242" stroke="#808080" stroke-width="2.0" fill="none"/>
<path d="M 35.667717,586.2608 L 53.026764,571.4736 L 30.56389,575.4003" stroke="#808080" stroke-width="2.0" fill="none"/>
<text text-anchor="middle" x="25.505064" y="680.8054" fill="#000000" style="font-size:24px"><tspan style="font-style:italic;">x=0</tspan></text>
<text text-anchor="middle" x="25.505064" y="704.8054" fill="#000000" style="font-size:24px">mettre <tspan style="font-style:italic;">S=1</tspan></text>
<path d="M 599.77136,137.0057 Q 483.5064,81.02078 400.11508,175.4494" stroke="#808080" stroke-width="2.0" fill="none"/>
<path d="M 408.85663,156.48666 L 398.7912,176.94852 L 417.85126,164.42996" stroke="#808080" stroke-width="2.0" fill="none"/>
<text text-anchor="middle" x="491.72482" y="91.62417" fill="#000000" style="font-size:24px"><tspan style="font-style:italic;">x=1</tspan></text>
<text text-anchor="middle" x="491.72482" y="115.62417" fill="#000000" style="font-size:24px">mettre <tspan style="font-style:italic;">S=1</tspan></text>
<path d="M 433.52023,231.58719 Q 512.61914,218.01476 586.97784,201.0657" stroke="#808080" stroke-width="2.0" fill="none"/>
<path d="M 568.8114,211.3604 L 588.92786,200.62123 L 566.14453,199.66048" stroke="#808080" stroke-width="2.0" fill="none"/>
<text text-anchor="middle" x="511.4341" y="214.17061" fill="#000000" style="font-size:24px"><tspan style="font-style:italic;">x=0</tspan></text>
<text text-anchor="middle" x="511.4341" y="238.17061" fill="#000000" style="font-size:24px">mettre <tspan style="font-style:italic;">S=0</tspan></text>
<path d="M 58.580063,165.21478 Q 271.50824,329.68967 480.1826,493.11847" stroke="#808080" stroke-width="2.0" fill="none"/>
<path d="M 460.7373,485.5105 L 481.75717,494.35165 L 468.13635,476.06305" stroke="#808080" stroke-width="2.0" fill="none"/>
<text text-anchor="middle" x="270.4448" y="326.42813" fill="#000000" style="font-size:24px"><tspan style="font-style:italic;">x=1</tspan></text>
<text text-anchor="middle" x="270.4448" y="350.42813" fill="#000000" style="font-size:24px">mettre <tspan style="font-style:italic;">S+1</tspan></text>
<path d="M 607.73486,127.61341 Q 509.43027,29.155502 413.80243,-66.32228" stroke="#808080" stroke-width="2.0" fill="none"/>
<path d="M 432.19498,-56.437225 L 412.38712,-67.73538 L 423.71634,-47.945282" stroke="#808080" stroke-width="2.0" fill="none"/>
<text text-anchor="middle" x="510.09946" y="26.900534" fill="#000000" style="font-size:24px"><tspan style="font-style:italic;">x=0</tspan></text>
<text text-anchor="middle" x="510.09946" y="50.900536" fill="#000000" style="font-size:24px">mettre <tspan style="font-style:italic;">S=1</tspan></text>
</g>
</svg>